<mxfile host="app.diagrams.net" agent="Mozilla/5.0 (Windows NT 10.0; Win64; x64) AppleWebKit/537.36 (KHTML, like Gecko) Chrome/141.0.0.0 Safari/537.36" version="28.2.5">
  <diagram id="C5RBs43oDa-KdzZeNtuy" name="Page-1">
    <mxGraphModel dx="1869" dy="1731" grid="1" gridSize="14" guides="1" tooltips="1" connect="1" arrows="1" fold="1" page="1" pageScale="1" pageWidth="827" pageHeight="1169" math="0" shadow="0">
      <root>
        <mxCell id="WIyWlLk6GJQsqaUBKTNV-0" />
        <mxCell id="WIyWlLk6GJQsqaUBKTNV-1" parent="WIyWlLk6GJQsqaUBKTNV-0" />
        <mxCell id="XJ4yfPHk3WQDnESd4M72-1" value="Administrator" style="shape=umlActor;verticalLabelPosition=bottom;verticalAlign=top;html=1;outlineConnect=0;fontSize=20;fontStyle=1" parent="WIyWlLk6GJQsqaUBKTNV-1" vertex="1">
          <mxGeometry x="14" y="14" width="126" height="166" as="geometry" />
        </mxCell>
        <mxCell id="XJ4yfPHk3WQDnESd4M72-2" value="User" style="shape=umlActor;verticalLabelPosition=bottom;verticalAlign=top;html=1;outlineConnect=0;fontSize=20;fontStyle=1" parent="WIyWlLk6GJQsqaUBKTNV-1" vertex="1">
          <mxGeometry y="322" width="140" height="177" as="geometry" />
        </mxCell>
        <mxCell id="XJ4yfPHk3WQDnESd4M72-14" value="" style="whiteSpace=wrap;html=1;aspect=fixed;fontSize=24;" parent="WIyWlLk6GJQsqaUBKTNV-1" vertex="1">
          <mxGeometry x="364" y="-526" width="3628" height="3628" as="geometry" />
        </mxCell>
        <mxCell id="XJ4yfPHk3WQDnESd4M72-15" value="Register / Login" style="ellipse;whiteSpace=wrap;html=1;fontSize=18;fontStyle=1" parent="WIyWlLk6GJQsqaUBKTNV-1" vertex="1">
          <mxGeometry x="1187" y="-266" width="190" height="56" as="geometry" />
        </mxCell>
        <mxCell id="XJ4yfPHk3WQDnESd4M72-17" value="Authenticate User" style="ellipse;whiteSpace=wrap;html=1;fontSize=18;fontStyle=1" parent="WIyWlLk6GJQsqaUBKTNV-1" vertex="1">
          <mxGeometry x="2228" y="-364" width="190" height="56" as="geometry" />
        </mxCell>
        <mxCell id="XJ4yfPHk3WQDnESd4M72-18" value="" style="endArrow=classic;html=1;rounded=0;fontSize=22;startSize=8;endSize=8;curved=1;exitX=1;exitY=0.5;exitDx=0;exitDy=0;entryX=0.052;entryY=0.669;entryDx=0;entryDy=0;entryPerimeter=0;fontStyle=1" parent="WIyWlLk6GJQsqaUBKTNV-1" source="XJ4yfPHk3WQDnESd4M72-15" target="XJ4yfPHk3WQDnESd4M72-17" edge="1">
          <mxGeometry relative="1" as="geometry">
            <mxPoint x="840" y="200" as="sourcePoint" />
            <mxPoint x="940" y="200" as="targetPoint" />
          </mxGeometry>
        </mxCell>
        <mxCell id="XJ4yfPHk3WQDnESd4M72-19" value="&amp;lt;&amp;lt;include&amp;gt;&amp;gt;" style="edgeLabel;resizable=0;html=1;;align=center;verticalAlign=middle;fontSize=18;fontStyle=1" parent="XJ4yfPHk3WQDnESd4M72-18" connectable="0" vertex="1">
          <mxGeometry relative="1" as="geometry">
            <mxPoint x="-10" as="offset" />
          </mxGeometry>
        </mxCell>
        <mxCell id="XJ4yfPHk3WQDnESd4M72-21" value="&lt;div&gt;View History of BD&lt;/div&gt;" style="ellipse;whiteSpace=wrap;html=1;fontSize=18;fontStyle=1" parent="WIyWlLk6GJQsqaUBKTNV-1" vertex="1">
          <mxGeometry x="1166.5" y="-61" width="210" height="56" as="geometry" />
        </mxCell>
        <mxCell id="XJ4yfPHk3WQDnESd4M72-22" value="Know about Season&amp;nbsp;" style="ellipse;whiteSpace=wrap;html=1;fontSize=18;fontStyle=1" parent="WIyWlLk6GJQsqaUBKTNV-1" vertex="1">
          <mxGeometry x="1166.5" y="54" width="219.5" height="66" as="geometry" />
        </mxCell>
        <mxCell id="XJ4yfPHk3WQDnESd4M72-23" value="Visit Sundarban&amp;nbsp;" style="ellipse;whiteSpace=wrap;html=1;fontSize=18;fontStyle=1" parent="WIyWlLk6GJQsqaUBKTNV-1" vertex="1">
          <mxGeometry x="1173" y="210" width="210" height="60" as="geometry" />
        </mxCell>
        <mxCell id="XJ4yfPHk3WQDnESd4M72-28" value="Buy root products" style="ellipse;whiteSpace=wrap;html=1;fontSize=18;fontStyle=1" parent="WIyWlLk6GJQsqaUBKTNV-1" vertex="1">
          <mxGeometry x="1174.5" y="384" width="210" height="66" as="geometry" />
        </mxCell>
        <mxCell id="XJ4yfPHk3WQDnESd4M72-32" value="Share war Story" style="ellipse;whiteSpace=wrap;html=1;fontSize=18;fontStyle=1" parent="WIyWlLk6GJQsqaUBKTNV-1" vertex="1">
          <mxGeometry x="2222.5" y="-252" width="182" height="42" as="geometry" />
        </mxCell>
        <mxCell id="XJ4yfPHk3WQDnESd4M72-33" value="View political history" style="ellipse;whiteSpace=wrap;html=1;fontSize=18;fontStyle=1" parent="WIyWlLk6GJQsqaUBKTNV-1" vertex="1">
          <mxGeometry x="2222.5" y="-182" width="213" height="56" as="geometry" />
        </mxCell>
        <mxCell id="XJ4yfPHk3WQDnESd4M72-35" value="Share opinion on PM" style="ellipse;whiteSpace=wrap;html=1;fontSize=18;fontStyle=1" parent="WIyWlLk6GJQsqaUBKTNV-1" vertex="1">
          <mxGeometry x="2187.5" y="-84" width="226" height="56" as="geometry" />
        </mxCell>
        <mxCell id="XJ4yfPHk3WQDnESd4M72-36" value="" style="endArrow=classic;html=1;rounded=0;fontSize=22;startSize=8;endSize=8;curved=1;fontStyle=1;entryX=0.97;entryY=0.345;entryDx=0;entryDy=0;entryPerimeter=0;" parent="WIyWlLk6GJQsqaUBKTNV-1" source="XJ4yfPHk3WQDnESd4M72-32" target="XJ4yfPHk3WQDnESd4M72-21" edge="1">
          <mxGeometry relative="1" as="geometry">
            <mxPoint x="970" y="180" as="sourcePoint" />
            <mxPoint x="854" y="224" as="targetPoint" />
          </mxGeometry>
        </mxCell>
        <mxCell id="XJ4yfPHk3WQDnESd4M72-37" value="&amp;lt;&amp;lt;extend&amp;gt;&amp;gt;" style="edgeLabel;resizable=0;html=1;;align=center;verticalAlign=middle;fontSize=18;fontStyle=1" parent="XJ4yfPHk3WQDnESd4M72-36" connectable="0" vertex="1">
          <mxGeometry relative="1" as="geometry" />
        </mxCell>
        <mxCell id="XJ4yfPHk3WQDnESd4M72-38" value="" style="endArrow=classic;html=1;rounded=0;fontSize=22;startSize=8;endSize=8;curved=1;exitX=0;exitY=0.5;exitDx=0;exitDy=0;entryX=1;entryY=0.5;entryDx=0;entryDy=0;fontStyle=1" parent="WIyWlLk6GJQsqaUBKTNV-1" source="XJ4yfPHk3WQDnESd4M72-33" target="XJ4yfPHk3WQDnESd4M72-21" edge="1">
          <mxGeometry relative="1" as="geometry">
            <mxPoint x="1000" y="198" as="sourcePoint" />
            <mxPoint x="847" y="235" as="targetPoint" />
          </mxGeometry>
        </mxCell>
        <mxCell id="XJ4yfPHk3WQDnESd4M72-39" value="&amp;lt;&amp;lt;extend&amp;gt;&amp;gt;" style="edgeLabel;resizable=0;html=1;;align=center;verticalAlign=middle;fontSize=18;fontStyle=1" parent="XJ4yfPHk3WQDnESd4M72-38" connectable="0" vertex="1">
          <mxGeometry relative="1" as="geometry" />
        </mxCell>
        <mxCell id="XJ4yfPHk3WQDnESd4M72-40" value="" style="endArrow=classic;html=1;rounded=0;fontSize=22;startSize=8;endSize=8;curved=1;fontStyle=1;entryX=0.963;entryY=0.655;entryDx=0;entryDy=0;entryPerimeter=0;" parent="WIyWlLk6GJQsqaUBKTNV-1" source="XJ4yfPHk3WQDnESd4M72-35" target="XJ4yfPHk3WQDnESd4M72-21" edge="1">
          <mxGeometry relative="1" as="geometry">
            <mxPoint x="1040" y="253" as="sourcePoint" />
            <mxPoint x="857" y="245" as="targetPoint" />
          </mxGeometry>
        </mxCell>
        <mxCell id="XJ4yfPHk3WQDnESd4M72-41" value="&amp;lt;&amp;lt;extend&amp;gt;&amp;gt;" style="edgeLabel;resizable=0;html=1;;align=center;verticalAlign=middle;fontSize=18;fontStyle=1" parent="XJ4yfPHk3WQDnESd4M72-40" connectable="0" vertex="1">
          <mxGeometry relative="1" as="geometry" />
        </mxCell>
        <mxCell id="XJ4yfPHk3WQDnESd4M72-45" value="View seasonal history" style="ellipse;whiteSpace=wrap;html=1;fontSize=18;fontStyle=1" parent="WIyWlLk6GJQsqaUBKTNV-1" vertex="1">
          <mxGeometry x="2151" y="14" width="236" height="46" as="geometry" />
        </mxCell>
        <mxCell id="XJ4yfPHk3WQDnESd4M72-46" value="Share experience&amp;nbsp;" style="ellipse;whiteSpace=wrap;html=1;fontSize=18;fontStyle=1" parent="WIyWlLk6GJQsqaUBKTNV-1" vertex="1">
          <mxGeometry x="2244" y="98" width="182.5" height="50" as="geometry" />
        </mxCell>
        <mxCell id="XJ4yfPHk3WQDnESd4M72-47" value="View daily story&amp;nbsp;" style="ellipse;whiteSpace=wrap;html=1;fontSize=18;fontStyle=1" parent="WIyWlLk6GJQsqaUBKTNV-1" vertex="1">
          <mxGeometry x="2151" y="168" width="182" height="42" as="geometry" />
        </mxCell>
        <mxCell id="XJ4yfPHk3WQDnESd4M72-48" value="" style="endArrow=classic;html=1;rounded=0;fontSize=22;startSize=8;endSize=8;curved=1;exitX=0.022;exitY=0.391;exitDx=0;exitDy=0;entryX=0.983;entryY=0.385;entryDx=0;entryDy=0;fontStyle=1;exitPerimeter=0;entryPerimeter=0;" parent="WIyWlLk6GJQsqaUBKTNV-1" source="XJ4yfPHk3WQDnESd4M72-45" target="XJ4yfPHk3WQDnESd4M72-22" edge="1">
          <mxGeometry relative="1" as="geometry">
            <mxPoint x="1000" y="198" as="sourcePoint" />
            <mxPoint x="847" y="235" as="targetPoint" />
          </mxGeometry>
        </mxCell>
        <mxCell id="XJ4yfPHk3WQDnESd4M72-49" value="&amp;lt;&amp;lt;extend&amp;gt;&amp;gt;" style="edgeLabel;resizable=0;html=1;;align=center;verticalAlign=middle;fontSize=18;fontStyle=1" parent="XJ4yfPHk3WQDnESd4M72-48" connectable="0" vertex="1">
          <mxGeometry relative="1" as="geometry" />
        </mxCell>
        <mxCell id="XJ4yfPHk3WQDnESd4M72-50" value="" style="endArrow=classic;html=1;rounded=0;fontSize=22;startSize=8;endSize=8;curved=1;exitX=0.035;exitY=0.623;exitDx=0;exitDy=0;entryX=1;entryY=0.5;entryDx=0;entryDy=0;fontStyle=1;exitPerimeter=0;" parent="WIyWlLk6GJQsqaUBKTNV-1" source="XJ4yfPHk3WQDnESd4M72-46" target="XJ4yfPHk3WQDnESd4M72-22" edge="1">
          <mxGeometry relative="1" as="geometry">
            <mxPoint x="984" y="417" as="sourcePoint" />
            <mxPoint x="839" y="412" as="targetPoint" />
          </mxGeometry>
        </mxCell>
        <mxCell id="XJ4yfPHk3WQDnESd4M72-51" value="&amp;lt;&amp;lt;extend&amp;gt;&amp;gt;" style="edgeLabel;resizable=0;html=1;;align=center;verticalAlign=middle;fontSize=18;fontStyle=1" parent="XJ4yfPHk3WQDnESd4M72-50" connectable="0" vertex="1">
          <mxGeometry relative="1" as="geometry" />
        </mxCell>
        <mxCell id="XJ4yfPHk3WQDnESd4M72-52" value="" style="endArrow=classic;html=1;rounded=0;fontSize=22;startSize=8;endSize=8;curved=1;exitX=0;exitY=0.5;exitDx=0;exitDy=0;entryX=1;entryY=0.627;entryDx=0;entryDy=0;fontStyle=1;entryPerimeter=0;" parent="WIyWlLk6GJQsqaUBKTNV-1" source="XJ4yfPHk3WQDnESd4M72-47" target="XJ4yfPHk3WQDnESd4M72-22" edge="1">
          <mxGeometry relative="1" as="geometry">
            <mxPoint x="1163" y="489" as="sourcePoint" />
            <mxPoint x="870" y="440" as="targetPoint" />
          </mxGeometry>
        </mxCell>
        <mxCell id="XJ4yfPHk3WQDnESd4M72-53" value="&amp;lt;&amp;lt;extend&amp;gt;&amp;gt;" style="edgeLabel;resizable=0;html=1;;align=center;verticalAlign=middle;fontSize=18;fontStyle=1" parent="XJ4yfPHk3WQDnESd4M72-52" connectable="0" vertex="1">
          <mxGeometry relative="1" as="geometry" />
        </mxCell>
        <mxCell id="XJ4yfPHk3WQDnESd4M72-54" value="Select category(e.g.,birds,trees ,law etc)" style="ellipse;whiteSpace=wrap;html=1;fontSize=18;fontStyle=1" parent="WIyWlLk6GJQsqaUBKTNV-1" vertex="1">
          <mxGeometry x="2114.5" y="252" width="372" height="56" as="geometry" />
        </mxCell>
        <mxCell id="XJ4yfPHk3WQDnESd4M72-55" value="&lt;br&gt;Record animals,birds and tree list&lt;div&gt;&lt;br&gt;&lt;/div&gt;" style="ellipse;whiteSpace=wrap;html=1;fontSize=18;fontStyle=1" parent="WIyWlLk6GJQsqaUBKTNV-1" vertex="1">
          <mxGeometry x="2170" y="350" width="338" height="56" as="geometry" />
        </mxCell>
        <mxCell id="XJ4yfPHk3WQDnESd4M72-56" value="view lifestyle" style="ellipse;whiteSpace=wrap;html=1;fontSize=18;fontStyle=1" parent="WIyWlLk6GJQsqaUBKTNV-1" vertex="1">
          <mxGeometry x="2222.5" y="434" width="168" height="42" as="geometry" />
        </mxCell>
        <mxCell id="XJ4yfPHk3WQDnESd4M72-57" value="" style="endArrow=classic;html=1;rounded=0;fontSize=22;startSize=8;endSize=8;curved=1;exitX=0;exitY=0.5;exitDx=0;exitDy=0;entryX=1;entryY=0.5;entryDx=0;entryDy=0;fontStyle=1" parent="WIyWlLk6GJQsqaUBKTNV-1" source="XJ4yfPHk3WQDnESd4M72-54" target="XJ4yfPHk3WQDnESd4M72-23" edge="1">
          <mxGeometry relative="1" as="geometry">
            <mxPoint x="1061" y="525" as="sourcePoint" />
            <mxPoint x="855" y="459" as="targetPoint" />
          </mxGeometry>
        </mxCell>
        <mxCell id="XJ4yfPHk3WQDnESd4M72-58" value="&amp;lt;&amp;lt;extend&amp;gt;&amp;gt;" style="edgeLabel;resizable=0;html=1;;align=center;verticalAlign=middle;fontSize=18;fontStyle=1" parent="XJ4yfPHk3WQDnESd4M72-57" connectable="0" vertex="1">
          <mxGeometry relative="1" as="geometry" />
        </mxCell>
        <mxCell id="XJ4yfPHk3WQDnESd4M72-59" value="" style="endArrow=classic;html=1;rounded=0;fontSize=22;startSize=8;endSize=8;curved=1;exitX=0.085;exitY=0.291;exitDx=0;exitDy=0;entryX=0.995;entryY=0.61;entryDx=0;entryDy=0;entryPerimeter=0;exitPerimeter=0;fontStyle=1" parent="WIyWlLk6GJQsqaUBKTNV-1" source="XJ4yfPHk3WQDnESd4M72-55" target="XJ4yfPHk3WQDnESd4M72-23" edge="1">
          <mxGeometry relative="1" as="geometry">
            <mxPoint x="1273" y="565" as="sourcePoint" />
            <mxPoint x="850" y="595" as="targetPoint" />
          </mxGeometry>
        </mxCell>
        <mxCell id="XJ4yfPHk3WQDnESd4M72-60" value="&amp;lt;&amp;lt;extend&amp;gt;&amp;gt;" style="edgeLabel;resizable=0;html=1;;align=center;verticalAlign=middle;fontSize=18;fontStyle=1" parent="XJ4yfPHk3WQDnESd4M72-59" connectable="0" vertex="1">
          <mxGeometry relative="1" as="geometry" />
        </mxCell>
        <mxCell id="XJ4yfPHk3WQDnESd4M72-61" value="" style="endArrow=classic;html=1;rounded=0;fontSize=22;startSize=8;endSize=8;curved=1;exitX=0;exitY=0.5;exitDx=0;exitDy=0;entryX=0.953;entryY=0.68;entryDx=0;entryDy=0;entryPerimeter=0;fontStyle=1" parent="WIyWlLk6GJQsqaUBKTNV-1" source="XJ4yfPHk3WQDnESd4M72-56" target="XJ4yfPHk3WQDnESd4M72-23" edge="1">
          <mxGeometry relative="1" as="geometry">
            <mxPoint x="1256" y="645" as="sourcePoint" />
            <mxPoint x="849" y="604" as="targetPoint" />
          </mxGeometry>
        </mxCell>
        <mxCell id="XJ4yfPHk3WQDnESd4M72-62" value="&amp;lt;&amp;lt;extend&amp;gt;&amp;gt;" style="edgeLabel;resizable=0;html=1;;align=center;verticalAlign=middle;fontSize=18;fontStyle=1" parent="XJ4yfPHk3WQDnESd4M72-61" connectable="0" vertex="1">
          <mxGeometry relative="1" as="geometry" />
        </mxCell>
        <mxCell id="XJ4yfPHk3WQDnESd4M72-81" value="Log Out" style="ellipse;whiteSpace=wrap;html=1;fontSize=20;fontStyle=1" parent="WIyWlLk6GJQsqaUBKTNV-1" vertex="1">
          <mxGeometry x="1258.5" y="2940" width="126" height="42" as="geometry" />
        </mxCell>
        <mxCell id="XJ4yfPHk3WQDnESd4M72-90" value="" style="endArrow=none;html=1;edgeStyle=orthogonalEdgeStyle;rounded=0;fontSize=22;startSize=8;endSize=8;curved=1;exitX=1;exitY=0.3333333333333333;exitDx=0;exitDy=0;exitPerimeter=0;entryX=0.044;entryY=0.68;entryDx=0;entryDy=0;entryPerimeter=0;fontStyle=1" parent="WIyWlLk6GJQsqaUBKTNV-1" source="XJ4yfPHk3WQDnESd4M72-1" target="XJ4yfPHk3WQDnESd4M72-15" edge="1">
          <mxGeometry relative="1" as="geometry">
            <mxPoint x="430" y="340" as="sourcePoint" />
            <mxPoint x="590" y="340" as="targetPoint" />
            <Array as="points">
              <mxPoint x="140" y="150" />
              <mxPoint x="966" y="150" />
              <mxPoint x="966" y="-228" />
            </Array>
          </mxGeometry>
        </mxCell>
        <mxCell id="XJ4yfPHk3WQDnESd4M72-103" value="Manage Admin Panel" style="ellipse;whiteSpace=wrap;html=1;fontSize=18;fontStyle=1" parent="WIyWlLk6GJQsqaUBKTNV-1" vertex="1">
          <mxGeometry x="1166.5" y="-168" width="226" height="60" as="geometry" />
        </mxCell>
        <mxCell id="XJ4yfPHk3WQDnESd4M72-104" value="" style="endArrow=none;html=1;edgeStyle=orthogonalEdgeStyle;rounded=0;fontSize=22;startSize=8;endSize=8;curved=1;entryX=0.024;entryY=0.313;entryDx=0;entryDy=0;entryPerimeter=0;fontStyle=1;exitX=1;exitY=0.3333333333333333;exitDx=0;exitDy=0;exitPerimeter=0;" parent="WIyWlLk6GJQsqaUBKTNV-1" target="XJ4yfPHk3WQDnESd4M72-103" edge="1" source="XJ4yfPHk3WQDnESd4M72-1">
          <mxGeometry relative="1" as="geometry">
            <mxPoint x="135" y="160" as="sourcePoint" />
            <mxPoint x="665" y="75" as="targetPoint" />
            <Array as="points">
              <mxPoint x="140" y="160" />
              <mxPoint x="994" y="160" />
              <mxPoint x="994" y="-107" />
              <mxPoint x="1172" y="-107" />
            </Array>
          </mxGeometry>
        </mxCell>
        <mxCell id="XJ4yfPHk3WQDnESd4M72-107" value="SOUL OF BANGLADESH&lt;div&gt;&lt;br&gt;&lt;/div&gt;" style="rounded=1;whiteSpace=wrap;html=1;fontStyle=1;fontSize=22;" parent="WIyWlLk6GJQsqaUBKTNV-1" vertex="1">
          <mxGeometry x="462" y="-420" width="298" height="56" as="geometry" />
        </mxCell>
        <mxCell id="Sqk8HF_Lt9G7m5628Lng-0" value="&amp;nbsp;user password" style="ellipse;whiteSpace=wrap;html=1;fontSize=18;fontStyle=1" parent="WIyWlLk6GJQsqaUBKTNV-1" vertex="1">
          <mxGeometry x="2267.5" y="490" width="168" height="56" as="geometry" />
        </mxCell>
        <mxCell id="Sqk8HF_Lt9G7m5628Lng-3" value="" style="endArrow=none;html=1;edgeStyle=orthogonalEdgeStyle;rounded=0;fontSize=22;startSize=8;endSize=8;curved=1;fontStyle=1;entryX=0;entryY=0.5;entryDx=0;entryDy=0;exitX=1;exitY=0.3333333333333333;exitDx=0;exitDy=0;exitPerimeter=0;" parent="WIyWlLk6GJQsqaUBKTNV-1" target="XJ4yfPHk3WQDnESd4M72-21" edge="1" source="XJ4yfPHk3WQDnESd4M72-2">
          <mxGeometry relative="1" as="geometry">
            <mxPoint x="126" y="426.7" as="sourcePoint" />
            <mxPoint x="1149.0700000000002" y="-60.98000000000006" as="targetPoint" />
            <Array as="points">
              <mxPoint x="182" y="409" />
              <mxPoint x="182" y="345" />
              <mxPoint x="623" y="345" />
              <mxPoint x="623" y="93" />
              <mxPoint x="1154" y="93" />
              <mxPoint x="1154" y="-33" />
            </Array>
          </mxGeometry>
        </mxCell>
        <mxCell id="Sqk8HF_Lt9G7m5628Lng-4" value="" style="endArrow=none;html=1;edgeStyle=orthogonalEdgeStyle;rounded=0;fontSize=22;startSize=8;endSize=8;curved=1;fontStyle=1;entryX=0;entryY=0.5;entryDx=0;entryDy=0;" parent="WIyWlLk6GJQsqaUBKTNV-1" target="XJ4yfPHk3WQDnESd4M72-22" edge="1">
          <mxGeometry relative="1" as="geometry">
            <mxPoint x="140" y="406" as="sourcePoint" />
            <mxPoint x="1204.0020000000002" y="211.8599999999999" as="targetPoint" />
            <Array as="points">
              <mxPoint x="140" y="420" />
              <mxPoint x="266" y="420" />
              <mxPoint x="266" y="440" />
              <mxPoint x="602" y="440" />
              <mxPoint x="602" y="342" />
              <mxPoint x="700" y="342" />
              <mxPoint x="700" y="212" />
              <mxPoint x="1078" y="212" />
              <mxPoint x="1078" y="87" />
            </Array>
          </mxGeometry>
        </mxCell>
        <mxCell id="Sqk8HF_Lt9G7m5628Lng-5" value="" style="endArrow=none;html=1;edgeStyle=orthogonalEdgeStyle;rounded=0;fontSize=22;startSize=8;endSize=8;curved=1;fontStyle=1;entryX=0;entryY=0.5;entryDx=0;entryDy=0;" parent="WIyWlLk6GJQsqaUBKTNV-1" target="XJ4yfPHk3WQDnESd4M72-23" edge="1">
          <mxGeometry relative="1" as="geometry">
            <mxPoint x="145" y="406" as="sourcePoint" />
            <mxPoint x="1143" y="270" as="targetPoint" />
            <Array as="points">
              <mxPoint x="145" y="436" />
              <mxPoint x="336" y="436" />
              <mxPoint x="336" y="461" />
              <mxPoint x="712" y="461" />
              <mxPoint x="712" y="270" />
              <mxPoint x="1173" y="270" />
            </Array>
          </mxGeometry>
        </mxCell>
        <mxCell id="Sqk8HF_Lt9G7m5628Lng-6" value="" style="endArrow=none;html=1;edgeStyle=orthogonalEdgeStyle;rounded=0;fontSize=22;startSize=8;endSize=8;curved=1;fontStyle=1;entryX=0;entryY=0.5;entryDx=0;entryDy=0;" parent="WIyWlLk6GJQsqaUBKTNV-1" target="XJ4yfPHk3WQDnESd4M72-28" edge="1">
          <mxGeometry relative="1" as="geometry">
            <mxPoint x="140" y="406" as="sourcePoint" />
            <mxPoint x="602" y="586" as="targetPoint" />
            <Array as="points">
              <mxPoint x="140" y="448" />
              <mxPoint x="189" y="448" />
              <mxPoint x="189" y="462" />
              <mxPoint x="378" y="462" />
              <mxPoint x="378" y="560" />
              <mxPoint x="602" y="560" />
              <mxPoint x="602" y="417" />
            </Array>
          </mxGeometry>
        </mxCell>
        <mxCell id="VIz6haqx31DAB9J9U4sU-0" value="Access Education Page" style="ellipse;whiteSpace=wrap;html=1;fontSize=18;fontStyle=1" parent="WIyWlLk6GJQsqaUBKTNV-1" vertex="1">
          <mxGeometry x="1180" y="532" width="224" height="70" as="geometry" />
        </mxCell>
        <mxCell id="VIz6haqx31DAB9J9U4sU-2" value="Authenticate User" style="ellipse;whiteSpace=wrap;html=1;fontSize=18;fontStyle=1" parent="WIyWlLk6GJQsqaUBKTNV-1" vertex="1">
          <mxGeometry x="2279" y="560" width="181" height="56" as="geometry" />
        </mxCell>
        <mxCell id="VIz6haqx31DAB9J9U4sU-4" value="" style="endArrow=classic;html=1;rounded=0;fontSize=22;startSize=8;endSize=8;curved=1;exitX=1;exitY=0.5;exitDx=0;exitDy=0;entryX=0;entryY=0.5;entryDx=0;entryDy=0;fontStyle=1;" parent="WIyWlLk6GJQsqaUBKTNV-1" source="VIz6haqx31DAB9J9U4sU-0" target="VIz6haqx31DAB9J9U4sU-2" edge="1">
          <mxGeometry relative="1" as="geometry">
            <mxPoint x="882" y="770" as="sourcePoint" />
            <mxPoint x="1086" y="799.5" as="targetPoint" />
          </mxGeometry>
        </mxCell>
        <mxCell id="VIz6haqx31DAB9J9U4sU-5" value="&amp;lt;&amp;lt;include&amp;gt;&amp;gt;" style="edgeLabel;resizable=0;html=1;;align=center;verticalAlign=middle;fontSize=18;fontStyle=1" parent="VIz6haqx31DAB9J9U4sU-4" connectable="0" vertex="1">
          <mxGeometry relative="1" as="geometry" />
        </mxCell>
        <mxCell id="VIz6haqx31DAB9J9U4sU-7" value="" style="endArrow=none;html=1;edgeStyle=orthogonalEdgeStyle;rounded=0;fontSize=22;startSize=8;endSize=8;curved=1;fontStyle=1;entryX=0;entryY=0.5;entryDx=0;entryDy=0;" parent="WIyWlLk6GJQsqaUBKTNV-1" target="VIz6haqx31DAB9J9U4sU-0" edge="1">
          <mxGeometry relative="1" as="geometry">
            <mxPoint x="140" y="406" as="sourcePoint" />
            <mxPoint x="756" y="975" as="targetPoint" />
            <Array as="points">
              <mxPoint x="140" y="448" />
              <mxPoint x="238" y="448" />
              <mxPoint x="238" y="462" />
              <mxPoint x="350" y="462" />
              <mxPoint x="350" y="616" />
              <mxPoint x="490" y="616" />
              <mxPoint x="490" y="644" />
              <mxPoint x="658" y="644" />
              <mxPoint x="658" y="581" />
            </Array>
          </mxGeometry>
        </mxCell>
        <mxCell id="VIz6haqx31DAB9J9U4sU-8" value="&lt;font&gt;&lt;span&gt;Browse&lt;/span&gt;&lt;/font&gt;&lt;span style=&quot;background-color: transparent; color: light-dark(rgb(0, 0, 0), rgb(255, 255, 255));&quot;&gt;&amp;nbsp;Alphabets&lt;/span&gt;" style="ellipse;whiteSpace=wrap;html=1;fontStyle=1;fontSize=18;" parent="WIyWlLk6GJQsqaUBKTNV-1" vertex="1">
          <mxGeometry x="1166" y="686" width="192" height="70" as="geometry" />
        </mxCell>
        <mxCell id="VIz6haqx31DAB9J9U4sU-9" value="Listen to Alphabet Pronounciation" style="ellipse;whiteSpace=wrap;html=1;fontSize=18;fontStyle=1" parent="WIyWlLk6GJQsqaUBKTNV-1" vertex="1">
          <mxGeometry x="2187.5" y="644" width="330" height="56" as="geometry" />
        </mxCell>
        <mxCell id="VIz6haqx31DAB9J9U4sU-12" value="" style="endArrow=classic;html=1;rounded=0;fontSize=22;startSize=8;endSize=8;curved=1;exitX=0;exitY=0.5;exitDx=0;exitDy=0;entryX=1;entryY=0.5;entryDx=0;entryDy=0;fontStyle=1" parent="WIyWlLk6GJQsqaUBKTNV-1" source="VIz6haqx31DAB9J9U4sU-9" target="VIz6haqx31DAB9J9U4sU-8" edge="1">
          <mxGeometry relative="1" as="geometry">
            <mxPoint x="1312" y="852" as="sourcePoint" />
            <mxPoint x="994" y="798" as="targetPoint" />
          </mxGeometry>
        </mxCell>
        <mxCell id="VIz6haqx31DAB9J9U4sU-13" value="&amp;lt;&amp;lt;extend&amp;gt;&amp;gt;" style="edgeLabel;resizable=0;html=1;;align=center;verticalAlign=middle;fontSize=18;fontStyle=1" parent="VIz6haqx31DAB9J9U4sU-12" connectable="0" vertex="1">
          <mxGeometry relative="1" as="geometry" />
        </mxCell>
        <mxCell id="VIz6haqx31DAB9J9U4sU-14" value="" style="endArrow=none;html=1;edgeStyle=orthogonalEdgeStyle;rounded=0;fontSize=22;startSize=8;endSize=8;curved=1;fontStyle=1;entryX=0;entryY=0.5;entryDx=0;entryDy=0;" parent="WIyWlLk6GJQsqaUBKTNV-1" target="VIz6haqx31DAB9J9U4sU-8" edge="1">
          <mxGeometry relative="1" as="geometry">
            <mxPoint x="140" y="490" as="sourcePoint" />
            <mxPoint x="924" y="866" as="targetPoint" />
            <Array as="points">
              <mxPoint x="336" y="490" />
              <mxPoint x="336" y="644" />
              <mxPoint x="504" y="644" />
              <mxPoint x="504" y="700" />
              <mxPoint x="574" y="700" />
              <mxPoint x="574" y="714" />
              <mxPoint x="602" y="714" />
              <mxPoint x="602" y="763" />
            </Array>
          </mxGeometry>
        </mxCell>
        <mxCell id="VIz6haqx31DAB9J9U4sU-15" value="View English Translation" style="ellipse;whiteSpace=wrap;html=1;fontSize=18;fontStyle=1" parent="WIyWlLk6GJQsqaUBKTNV-1" vertex="1">
          <mxGeometry x="2279" y="728" width="238" height="56" as="geometry" />
        </mxCell>
        <mxCell id="VIz6haqx31DAB9J9U4sU-18" value="" style="endArrow=classic;html=1;rounded=0;fontSize=22;startSize=8;endSize=8;curved=1;exitX=0;exitY=0.5;exitDx=0;exitDy=0;entryX=0.966;entryY=0.671;entryDx=0;entryDy=0;fontStyle=1;entryPerimeter=0;" parent="WIyWlLk6GJQsqaUBKTNV-1" source="VIz6haqx31DAB9J9U4sU-15" target="VIz6haqx31DAB9J9U4sU-8" edge="1">
          <mxGeometry relative="1" as="geometry">
            <mxPoint x="1205" y="826" as="sourcePoint" />
            <mxPoint x="980" y="812" as="targetPoint" />
          </mxGeometry>
        </mxCell>
        <mxCell id="VIz6haqx31DAB9J9U4sU-19" value="&amp;lt;&amp;lt;extend&amp;gt;&amp;gt;" style="edgeLabel;resizable=0;html=1;;align=center;verticalAlign=middle;fontSize=18;fontStyle=1" parent="VIz6haqx31DAB9J9U4sU-18" connectable="0" vertex="1">
          <mxGeometry relative="1" as="geometry" />
        </mxCell>
        <mxCell id="VIz6haqx31DAB9J9U4sU-20" value="View Educational Institution" style="ellipse;whiteSpace=wrap;html=1;fontSize=18;fontStyle=1" parent="WIyWlLk6GJQsqaUBKTNV-1" vertex="1">
          <mxGeometry x="1138" y="826" width="280" height="66" as="geometry" />
        </mxCell>
        <mxCell id="VIz6haqx31DAB9J9U4sU-23" value="" style="endArrow=none;html=1;edgeStyle=orthogonalEdgeStyle;rounded=0;fontSize=22;startSize=8;endSize=8;curved=1;fontStyle=1;entryX=0;entryY=0.5;entryDx=0;entryDy=0;" parent="WIyWlLk6GJQsqaUBKTNV-1" target="VIz6haqx31DAB9J9U4sU-20" edge="1">
          <mxGeometry relative="1" as="geometry">
            <mxPoint x="140" y="523" as="sourcePoint" />
            <mxPoint x="1138" y="892" as="targetPoint" />
            <Array as="points">
              <mxPoint x="140" y="551" />
              <mxPoint x="322" y="551" />
              <mxPoint x="322" y="705" />
              <mxPoint x="518" y="705" />
              <mxPoint x="518" y="866" />
              <mxPoint x="560" y="866" />
              <mxPoint x="560" y="859" />
            </Array>
          </mxGeometry>
        </mxCell>
        <mxCell id="VIz6haqx31DAB9J9U4sU-24" value="Submit New Institution" style="ellipse;whiteSpace=wrap;html=1;fontSize=18;fontStyle=1" parent="WIyWlLk6GJQsqaUBKTNV-1" vertex="1">
          <mxGeometry x="2253.5" y="798" width="252" height="52" as="geometry" />
        </mxCell>
        <mxCell id="VIz6haqx31DAB9J9U4sU-25" value="" style="endArrow=classic;html=1;rounded=0;fontSize=22;startSize=8;endSize=8;curved=1;exitX=0;exitY=0.5;exitDx=0;exitDy=0;entryX=1;entryY=0.5;entryDx=0;entryDy=0;fontStyle=1" parent="WIyWlLk6GJQsqaUBKTNV-1" source="VIz6haqx31DAB9J9U4sU-24" target="VIz6haqx31DAB9J9U4sU-20" edge="1">
          <mxGeometry relative="1" as="geometry">
            <mxPoint x="1121" y="896" as="sourcePoint" />
            <mxPoint x="896" y="882" as="targetPoint" />
          </mxGeometry>
        </mxCell>
        <mxCell id="VIz6haqx31DAB9J9U4sU-26" value="&amp;lt;&amp;lt;extend&amp;gt;&amp;gt;" style="edgeLabel;resizable=0;html=1;;align=center;verticalAlign=middle;fontSize=18;fontStyle=1" parent="VIz6haqx31DAB9J9U4sU-25" connectable="0" vertex="1">
          <mxGeometry relative="1" as="geometry" />
        </mxCell>
        <mxCell id="VIz6haqx31DAB9J9U4sU-27" value="Access Books Page" style="ellipse;whiteSpace=wrap;html=1;fontSize=18;fontStyle=1" parent="WIyWlLk6GJQsqaUBKTNV-1" vertex="1">
          <mxGeometry x="1184" y="938" width="196" height="56" as="geometry" />
        </mxCell>
        <mxCell id="VIz6haqx31DAB9J9U4sU-28" value="" style="endArrow=none;html=1;edgeStyle=orthogonalEdgeStyle;rounded=0;fontSize=22;startSize=8;endSize=8;curved=1;fontStyle=1;entryX=0;entryY=0.5;entryDx=0;entryDy=0;" parent="WIyWlLk6GJQsqaUBKTNV-1" target="VIz6haqx31DAB9J9U4sU-27" edge="1">
          <mxGeometry relative="1" as="geometry">
            <mxPoint x="140" y="490" as="sourcePoint" />
            <mxPoint x="644" y="999" as="targetPoint" />
            <Array as="points">
              <mxPoint x="140" y="532" />
              <mxPoint x="238" y="532" />
              <mxPoint x="238" y="756" />
              <mxPoint x="476" y="756" />
              <mxPoint x="476" y="896" />
              <mxPoint x="504" y="896" />
              <mxPoint x="504" y="966" />
            </Array>
          </mxGeometry>
        </mxCell>
        <mxCell id="VIz6haqx31DAB9J9U4sU-29" value="" style="endArrow=classic;html=1;rounded=0;fontSize=22;startSize=8;endSize=8;curved=1;exitX=1;exitY=0.5;exitDx=0;exitDy=0;entryX=0;entryY=0.5;entryDx=0;entryDy=0;fontStyle=1;" parent="WIyWlLk6GJQsqaUBKTNV-1" source="VIz6haqx31DAB9J9U4sU-27" target="VIz6haqx31DAB9J9U4sU-31" edge="1">
          <mxGeometry relative="1" as="geometry">
            <mxPoint x="812" y="980" as="sourcePoint" />
            <mxPoint x="1023" y="1003" as="targetPoint" />
          </mxGeometry>
        </mxCell>
        <mxCell id="VIz6haqx31DAB9J9U4sU-30" value="&amp;lt;&amp;lt;include&amp;gt;&amp;gt;" style="edgeLabel;resizable=0;html=1;;align=center;verticalAlign=middle;fontSize=18;fontStyle=1" parent="VIz6haqx31DAB9J9U4sU-29" connectable="0" vertex="1">
          <mxGeometry relative="1" as="geometry" />
        </mxCell>
        <mxCell id="VIz6haqx31DAB9J9U4sU-31" value="Read Book pdf Online" style="ellipse;whiteSpace=wrap;html=1;fontSize=18;fontStyle=1" parent="WIyWlLk6GJQsqaUBKTNV-1" vertex="1">
          <mxGeometry x="2279" y="878" width="231" height="60" as="geometry" />
        </mxCell>
        <mxCell id="VIz6haqx31DAB9J9U4sU-32" value="" style="endArrow=classic;html=1;rounded=0;fontSize=22;startSize=8;endSize=8;curved=1;exitX=0;exitY=0.5;exitDx=0;exitDy=0;entryX=0.926;entryY=0.7;entryDx=0;entryDy=0;fontStyle=1;entryPerimeter=0;" parent="WIyWlLk6GJQsqaUBKTNV-1" source="VIz6haqx31DAB9J9U4sU-34" target="VIz6haqx31DAB9J9U4sU-27" edge="1">
          <mxGeometry relative="1" as="geometry">
            <mxPoint x="1164" y="1129" as="sourcePoint" />
            <mxPoint x="868" y="1050" as="targetPoint" />
          </mxGeometry>
        </mxCell>
        <mxCell id="VIz6haqx31DAB9J9U4sU-33" value="&amp;lt;&amp;lt;extend&amp;gt;&amp;gt;" style="edgeLabel;resizable=0;html=1;;align=center;verticalAlign=middle;fontSize=18;fontStyle=1" parent="VIz6haqx31DAB9J9U4sU-32" connectable="0" vertex="1">
          <mxGeometry relative="1" as="geometry" />
        </mxCell>
        <mxCell id="VIz6haqx31DAB9J9U4sU-34" value="Download Book Pdf" style="ellipse;whiteSpace=wrap;html=1;fontSize=18;fontStyle=1" parent="WIyWlLk6GJQsqaUBKTNV-1" vertex="1">
          <mxGeometry x="2333" y="952" width="201" height="56" as="geometry" />
        </mxCell>
        <mxCell id="VIz6haqx31DAB9J9U4sU-35" value="View Cultural Contents" style="ellipse;whiteSpace=wrap;html=1;fontSize=18;fontStyle=1" parent="WIyWlLk6GJQsqaUBKTNV-1" vertex="1">
          <mxGeometry x="1166" y="1076" width="252" height="56" as="geometry" />
        </mxCell>
        <mxCell id="VIz6haqx31DAB9J9U4sU-36" value="" style="endArrow=none;html=1;edgeStyle=orthogonalEdgeStyle;rounded=0;fontSize=22;startSize=8;endSize=8;curved=1;fontStyle=1;entryX=0;entryY=0.5;entryDx=0;entryDy=0;" parent="WIyWlLk6GJQsqaUBKTNV-1" target="VIz6haqx31DAB9J9U4sU-35" edge="1">
          <mxGeometry relative="1" as="geometry">
            <mxPoint x="140" y="490" as="sourcePoint" />
            <mxPoint x="728" y="1190" as="targetPoint" />
            <Array as="points">
              <mxPoint x="140" y="560" />
              <mxPoint x="224" y="560" />
              <mxPoint x="224" y="826" />
              <mxPoint x="448" y="826" />
              <mxPoint x="448" y="994" />
              <mxPoint x="476" y="994" />
              <mxPoint x="476" y="1104" />
            </Array>
          </mxGeometry>
        </mxCell>
        <mxCell id="VIz6haqx31DAB9J9U4sU-39" value="View Cultural Festivals" style="ellipse;whiteSpace=wrap;html=1;fontSize=18;fontStyle=1" parent="WIyWlLk6GJQsqaUBKTNV-1" vertex="1">
          <mxGeometry x="2280" y="1023" width="216.5" height="53" as="geometry" />
        </mxCell>
        <mxCell id="VIz6haqx31DAB9J9U4sU-40" value="View Cultural Traditions" style="ellipse;whiteSpace=wrap;html=1;fontSize=18;fontStyle=1" parent="WIyWlLk6GJQsqaUBKTNV-1" vertex="1">
          <mxGeometry x="2296" y="1092" width="231" height="53" as="geometry" />
        </mxCell>
        <mxCell id="VIz6haqx31DAB9J9U4sU-41" value="" style="endArrow=classic;html=1;rounded=0;fontSize=22;startSize=8;endSize=8;curved=1;entryX=0;entryY=0.5;entryDx=0;entryDy=0;fontStyle=1;exitX=1;exitY=0.5;exitDx=0;exitDy=0;" parent="WIyWlLk6GJQsqaUBKTNV-1" source="VIz6haqx31DAB9J9U4sU-35" target="VIz6haqx31DAB9J9U4sU-40" edge="1">
          <mxGeometry relative="1" as="geometry">
            <mxPoint x="700" y="1064" as="sourcePoint" />
            <mxPoint x="1514.8860000000002" y="1753.1760000000002" as="targetPoint" />
          </mxGeometry>
        </mxCell>
        <mxCell id="VIz6haqx31DAB9J9U4sU-42" value="&amp;lt;&amp;lt;include&amp;gt;&amp;gt;" style="edgeLabel;resizable=0;html=1;;align=center;verticalAlign=middle;fontSize=18;fontStyle=1" parent="VIz6haqx31DAB9J9U4sU-41" connectable="0" vertex="1">
          <mxGeometry relative="1" as="geometry" />
        </mxCell>
        <mxCell id="VIz6haqx31DAB9J9U4sU-46" value="View Cultural Dresses" style="ellipse;whiteSpace=wrap;html=1;fontSize=18;fontStyle=1" parent="WIyWlLk6GJQsqaUBKTNV-1" vertex="1">
          <mxGeometry x="2326" y="1155" width="215" height="49" as="geometry" />
        </mxCell>
        <mxCell id="VIz6haqx31DAB9J9U4sU-50" value="View Cultural Art" style="ellipse;whiteSpace=wrap;html=1;fontSize=18;fontStyle=1" parent="WIyWlLk6GJQsqaUBKTNV-1" vertex="1">
          <mxGeometry x="791" y="1204" width="217" height="42" as="geometry" />
        </mxCell>
        <mxCell id="VIz6haqx31DAB9J9U4sU-67" value="View Upcoming Festivals" style="ellipse;whiteSpace=wrap;html=1;fontSize=18;fontStyle=1" parent="WIyWlLk6GJQsqaUBKTNV-1" vertex="1">
          <mxGeometry x="1178" y="1232" width="200" height="56" as="geometry" />
        </mxCell>
        <mxCell id="VIz6haqx31DAB9J9U4sU-70" value="Set Reminder&amp;nbsp;" style="ellipse;whiteSpace=wrap;html=1;fontSize=18;fontStyle=1" parent="WIyWlLk6GJQsqaUBKTNV-1" vertex="1">
          <mxGeometry x="1654" y="1232" width="182" height="56" as="geometry" />
        </mxCell>
        <mxCell id="VIz6haqx31DAB9J9U4sU-71" value="" style="endArrow=classic;html=1;rounded=0;fontSize=22;startSize=8;endSize=8;curved=1;entryX=1;entryY=0.5;entryDx=0;entryDy=0;fontStyle=1;exitX=0;exitY=0.5;exitDx=0;exitDy=0;" parent="WIyWlLk6GJQsqaUBKTNV-1" source="VIz6haqx31DAB9J9U4sU-70" target="VIz6haqx31DAB9J9U4sU-67" edge="1">
          <mxGeometry relative="1" as="geometry">
            <mxPoint x="882" y="1554" as="sourcePoint" />
            <mxPoint x="798" y="1554" as="targetPoint" />
          </mxGeometry>
        </mxCell>
        <mxCell id="VIz6haqx31DAB9J9U4sU-72" value="&amp;lt;&amp;lt;extend&amp;gt;&amp;gt;" style="edgeLabel;resizable=0;html=1;;align=center;verticalAlign=middle;fontSize=18;fontStyle=1" parent="VIz6haqx31DAB9J9U4sU-71" connectable="0" vertex="1">
          <mxGeometry relative="1" as="geometry" />
        </mxCell>
        <mxCell id="VIz6haqx31DAB9J9U4sU-76" value="Get Notify from GmailID" style="ellipse;whiteSpace=wrap;html=1;fontSize=18;fontStyle=1" parent="WIyWlLk6GJQsqaUBKTNV-1" vertex="1">
          <mxGeometry x="1626" y="1428" width="238" height="56" as="geometry" />
        </mxCell>
        <mxCell id="VIz6haqx31DAB9J9U4sU-77" value="" style="endArrow=classic;html=1;rounded=0;fontSize=22;startSize=8;endSize=8;curved=1;exitX=0.5;exitY=1;exitDx=0;exitDy=0;entryX=0.5;entryY=0;entryDx=0;entryDy=0;fontStyle=1;" parent="WIyWlLk6GJQsqaUBKTNV-1" source="VIz6haqx31DAB9J9U4sU-70" target="VIz6haqx31DAB9J9U4sU-76" edge="1">
          <mxGeometry relative="1" as="geometry">
            <mxPoint x="2996" y="1330" as="sourcePoint" />
            <mxPoint x="1964" y="2071" as="targetPoint" />
            <Array as="points" />
          </mxGeometry>
        </mxCell>
        <mxCell id="VIz6haqx31DAB9J9U4sU-78" value="&amp;lt;&amp;lt;include&amp;gt;&amp;gt;" style="edgeLabel;resizable=0;html=1;;align=center;verticalAlign=middle;fontSize=18;fontStyle=1" parent="VIz6haqx31DAB9J9U4sU-77" connectable="0" vertex="1">
          <mxGeometry relative="1" as="geometry">
            <mxPoint x="-18" y="2" as="offset" />
          </mxGeometry>
        </mxCell>
        <mxCell id="VIz6haqx31DAB9J9U4sU-81" style="edgeStyle=orthogonalEdgeStyle;rounded=0;orthogonalLoop=1;jettySize=auto;html=1;exitX=0.5;exitY=1;exitDx=0;exitDy=0;" parent="WIyWlLk6GJQsqaUBKTNV-1" source="VIz6haqx31DAB9J9U4sU-43" target="VIz6haqx31DAB9J9U4sU-43" edge="1">
          <mxGeometry relative="1" as="geometry" />
        </mxCell>
        <mxCell id="VIz6haqx31DAB9J9U4sU-85" value="" style="endArrow=classic;html=1;rounded=0;fontSize=22;startSize=8;endSize=8;curved=1;exitX=1;exitY=0.5;exitDx=0;exitDy=0;fontStyle=1;entryX=0;entryY=0.5;entryDx=0;entryDy=0;" parent="WIyWlLk6GJQsqaUBKTNV-1" source="XJ4yfPHk3WQDnESd4M72-28" edge="1" target="Sqk8HF_Lt9G7m5628Lng-0">
          <mxGeometry relative="1" as="geometry">
            <mxPoint x="994" y="588" as="sourcePoint" />
            <mxPoint x="1064" y="602" as="targetPoint" />
          </mxGeometry>
        </mxCell>
        <mxCell id="VIz6haqx31DAB9J9U4sU-86" value="&amp;lt;&amp;lt;include&amp;gt;&amp;gt;" style="edgeLabel;resizable=0;html=1;;align=center;verticalAlign=middle;fontSize=18;fontStyle=1" parent="VIz6haqx31DAB9J9U4sU-85" connectable="0" vertex="1">
          <mxGeometry relative="1" as="geometry" />
        </mxCell>
        <mxCell id="VIz6haqx31DAB9J9U4sU-103" value="" style="endArrow=none;html=1;edgeStyle=orthogonalEdgeStyle;rounded=0;fontSize=22;startSize=8;endSize=8;curved=1;entryX=0;entryY=0.5;entryDx=0;entryDy=0;fontStyle=1" parent="WIyWlLk6GJQsqaUBKTNV-1" target="XJ4yfPHk3WQDnESd4M72-15" edge="1">
          <mxGeometry relative="1" as="geometry">
            <mxPoint x="140" y="406" as="sourcePoint" />
            <mxPoint x="1045" y="322" as="targetPoint" />
            <Array as="points">
              <mxPoint x="168" y="406" />
              <mxPoint x="168" y="266" />
              <mxPoint x="588" y="266" />
              <mxPoint x="588" y="-112" />
              <mxPoint x="700" y="-112" />
              <mxPoint x="700" y="-135" />
              <mxPoint x="728" y="-135" />
              <mxPoint x="728" y="-238" />
            </Array>
          </mxGeometry>
        </mxCell>
        <mxCell id="luvSKbE3HoO7kfqYkVxN-1" value="Explore Hills" style="ellipse;whiteSpace=wrap;html=1;fontSize=18;fontStyle=1" parent="WIyWlLk6GJQsqaUBKTNV-1" vertex="1">
          <mxGeometry x="1207.88" y="1519" width="143.25" height="49" as="geometry" />
        </mxCell>
        <mxCell id="luvSKbE3HoO7kfqYkVxN-2" value="Daily Sports Update/Info" style="ellipse;whiteSpace=wrap;html=1;fontSize=18;fontStyle=1" parent="WIyWlLk6GJQsqaUBKTNV-1" vertex="1">
          <mxGeometry x="1196" y="2226" width="151" height="56" as="geometry" />
        </mxCell>
        <mxCell id="luvSKbE3HoO7kfqYkVxN-3" value="Visit River Panel" style="ellipse;whiteSpace=wrap;html=1;fontSize=18;fontStyle=1" parent="WIyWlLk6GJQsqaUBKTNV-1" vertex="1">
          <mxGeometry x="1197.01" y="1862" width="165" height="56" as="geometry" />
        </mxCell>
        <mxCell id="luvSKbE3HoO7kfqYkVxN-4" value="Know Festivals of BD" style="ellipse;whiteSpace=wrap;html=1;fontSize=18;fontStyle=1" parent="WIyWlLk6GJQsqaUBKTNV-1" vertex="1">
          <mxGeometry x="1180.5" y="2044" width="205.5" height="56" as="geometry" />
        </mxCell>
        <mxCell id="luvSKbE3HoO7kfqYkVxN-5" value="Explore Transport" style="ellipse;whiteSpace=wrap;html=1;fontSize=18;fontStyle=1" parent="WIyWlLk6GJQsqaUBKTNV-1" vertex="1">
          <mxGeometry x="1201" y="1652" width="179" height="56" as="geometry" />
        </mxCell>
        <mxCell id="luvSKbE3HoO7kfqYkVxN-8" value="Get to know Heritage Places" style="ellipse;whiteSpace=wrap;html=1;fontSize=18;fontStyle=1" parent="WIyWlLk6GJQsqaUBKTNV-1" vertex="1">
          <mxGeometry x="1166" y="2338" width="244.5" height="70" as="geometry" />
        </mxCell>
        <mxCell id="luvSKbE3HoO7kfqYkVxN-10" value="View Map" style="ellipse;whiteSpace=wrap;html=1;fontSize=18;fontStyle=1" parent="WIyWlLk6GJQsqaUBKTNV-1" vertex="1">
          <mxGeometry x="2344.5" y="1498" width="178" height="42" as="geometry" />
        </mxCell>
        <mxCell id="luvSKbE3HoO7kfqYkVxN-11" value="View details" style="ellipse;whiteSpace=wrap;html=1;fontSize=18;fontStyle=1" parent="WIyWlLk6GJQsqaUBKTNV-1" vertex="1">
          <mxGeometry x="2333" y="1428" width="182" height="42" as="geometry" />
        </mxCell>
        <mxCell id="luvSKbE3HoO7kfqYkVxN-12" value="Search with destination and source" style="ellipse;whiteSpace=wrap;html=1;fontSize=18;fontStyle=1" parent="WIyWlLk6GJQsqaUBKTNV-1" vertex="1">
          <mxGeometry x="2279" y="1568" width="325.5" height="70" as="geometry" />
        </mxCell>
        <mxCell id="luvSKbE3HoO7kfqYkVxN-13" value="View Map" style="ellipse;whiteSpace=wrap;html=1;fontSize=18;fontStyle=1" parent="WIyWlLk6GJQsqaUBKTNV-1" vertex="1">
          <mxGeometry x="2344.5" y="1666" width="140" height="42" as="geometry" />
        </mxCell>
        <mxCell id="luvSKbE3HoO7kfqYkVxN-14" value="River History" style="ellipse;whiteSpace=wrap;html=1;fontSize=18;fontStyle=1" parent="WIyWlLk6GJQsqaUBKTNV-1" vertex="1">
          <mxGeometry x="2340" y="1754" width="168" height="42" as="geometry" />
        </mxCell>
        <mxCell id="luvSKbE3HoO7kfqYkVxN-15" value="select Catagory" style="ellipse;whiteSpace=wrap;html=1;fontSize=18;fontStyle=1" parent="WIyWlLk6GJQsqaUBKTNV-1" vertex="1">
          <mxGeometry x="2356" y="1890" width="207" height="42" as="geometry" />
        </mxCell>
        <mxCell id="luvSKbE3HoO7kfqYkVxN-16" value="History of Festivals" style="ellipse;whiteSpace=wrap;html=1;fontSize=18;fontStyle=1" parent="WIyWlLk6GJQsqaUBKTNV-1" vertex="1">
          <mxGeometry x="2353" y="2030" width="196" height="56" as="geometry" />
        </mxCell>
        <mxCell id="luvSKbE3HoO7kfqYkVxN-17" value="select&amp;nbsp; catagory" style="ellipse;whiteSpace=wrap;html=1;fontSize=18;fontStyle=1" parent="WIyWlLk6GJQsqaUBKTNV-1" vertex="1">
          <mxGeometry x="2350.75" y="2114" width="182" height="56" as="geometry" />
        </mxCell>
        <mxCell id="luvSKbE3HoO7kfqYkVxN-18" value="" style="endArrow=classic;html=1;rounded=0;fontSize=22;startSize=8;endSize=8;curved=1;entryX=0.946;entryY=0.286;entryDx=0;entryDy=0;fontStyle=1;entryPerimeter=0;" parent="WIyWlLk6GJQsqaUBKTNV-1" source="luvSKbE3HoO7kfqYkVxN-11" target="luvSKbE3HoO7kfqYkVxN-1" edge="1">
          <mxGeometry relative="1" as="geometry">
            <mxPoint x="976" y="1484" as="sourcePoint" />
            <mxPoint x="826" y="1456" as="targetPoint" />
          </mxGeometry>
        </mxCell>
        <mxCell id="luvSKbE3HoO7kfqYkVxN-19" value="&amp;lt;&amp;lt;extend&amp;gt;&amp;gt;" style="edgeLabel;resizable=0;html=1;;align=center;verticalAlign=middle;fontSize=18;fontStyle=1" parent="luvSKbE3HoO7kfqYkVxN-18" connectable="0" vertex="1">
          <mxGeometry relative="1" as="geometry" />
        </mxCell>
        <mxCell id="luvSKbE3HoO7kfqYkVxN-20" value="" style="endArrow=classic;html=1;rounded=0;fontSize=22;startSize=8;endSize=8;curved=1;fontStyle=1;exitX=0;exitY=0.5;exitDx=0;exitDy=0;" parent="WIyWlLk6GJQsqaUBKTNV-1" source="luvSKbE3HoO7kfqYkVxN-10" target="luvSKbE3HoO7kfqYkVxN-1" edge="1">
          <mxGeometry relative="1" as="geometry">
            <mxPoint x="962" y="1582" as="sourcePoint" />
            <mxPoint x="812" y="1554" as="targetPoint" />
          </mxGeometry>
        </mxCell>
        <mxCell id="luvSKbE3HoO7kfqYkVxN-21" value="&amp;lt;&amp;lt;extend&amp;gt;&amp;gt;" style="edgeLabel;resizable=0;html=1;;align=center;verticalAlign=middle;fontSize=18;fontStyle=1" parent="luvSKbE3HoO7kfqYkVxN-20" connectable="0" vertex="1">
          <mxGeometry relative="1" as="geometry" />
        </mxCell>
        <mxCell id="luvSKbE3HoO7kfqYkVxN-22" value="" style="endArrow=classic;html=1;rounded=0;fontSize=22;startSize=8;endSize=8;curved=1;entryX=0.962;entryY=0.343;entryDx=0;entryDy=0;fontStyle=1;exitX=0;exitY=0.5;exitDx=0;exitDy=0;entryPerimeter=0;" parent="WIyWlLk6GJQsqaUBKTNV-1" source="luvSKbE3HoO7kfqYkVxN-12" target="luvSKbE3HoO7kfqYkVxN-5" edge="1">
          <mxGeometry relative="1" as="geometry">
            <mxPoint x="962" y="1638" as="sourcePoint" />
            <mxPoint x="812" y="1610" as="targetPoint" />
          </mxGeometry>
        </mxCell>
        <mxCell id="luvSKbE3HoO7kfqYkVxN-23" value="&amp;lt;&amp;lt;extend&amp;gt;&amp;gt;" style="edgeLabel;resizable=0;html=1;;align=center;verticalAlign=middle;fontSize=18;fontStyle=1" parent="luvSKbE3HoO7kfqYkVxN-22" connectable="0" vertex="1">
          <mxGeometry relative="1" as="geometry" />
        </mxCell>
        <mxCell id="luvSKbE3HoO7kfqYkVxN-24" value="" style="endArrow=classic;html=1;rounded=0;fontSize=22;startSize=8;endSize=8;curved=1;fontStyle=1;" parent="WIyWlLk6GJQsqaUBKTNV-1" source="luvSKbE3HoO7kfqYkVxN-13" target="luvSKbE3HoO7kfqYkVxN-5" edge="1">
          <mxGeometry relative="1" as="geometry">
            <mxPoint x="948" y="1834" as="sourcePoint" />
            <mxPoint x="798" y="1806" as="targetPoint" />
          </mxGeometry>
        </mxCell>
        <mxCell id="luvSKbE3HoO7kfqYkVxN-25" value="&amp;lt;&amp;lt;extend&amp;gt;&amp;gt;" style="edgeLabel;resizable=0;html=1;;align=center;verticalAlign=middle;fontSize=18;fontStyle=1" parent="luvSKbE3HoO7kfqYkVxN-24" connectable="0" vertex="1">
          <mxGeometry relative="1" as="geometry" />
        </mxCell>
        <mxCell id="luvSKbE3HoO7kfqYkVxN-26" value="" style="endArrow=classic;html=1;rounded=0;fontSize=22;startSize=8;endSize=8;curved=1;fontStyle=1;" parent="WIyWlLk6GJQsqaUBKTNV-1" source="luvSKbE3HoO7kfqYkVxN-14" target="luvSKbE3HoO7kfqYkVxN-3" edge="1">
          <mxGeometry relative="1" as="geometry">
            <mxPoint x="992" y="1876" as="sourcePoint" />
            <mxPoint x="756" y="1901" as="targetPoint" />
          </mxGeometry>
        </mxCell>
        <mxCell id="luvSKbE3HoO7kfqYkVxN-27" value="&amp;lt;&amp;lt;extend&amp;gt;&amp;gt;" style="edgeLabel;resizable=0;html=1;;align=center;verticalAlign=middle;fontSize=18;fontStyle=1" parent="luvSKbE3HoO7kfqYkVxN-26" connectable="0" vertex="1">
          <mxGeometry relative="1" as="geometry" />
        </mxCell>
        <mxCell id="luvSKbE3HoO7kfqYkVxN-30" value="" style="endArrow=classic;html=1;rounded=0;fontSize=22;startSize=8;endSize=8;curved=1;fontStyle=1;" parent="WIyWlLk6GJQsqaUBKTNV-1" source="luvSKbE3HoO7kfqYkVxN-15" target="luvSKbE3HoO7kfqYkVxN-3" edge="1">
          <mxGeometry relative="1" as="geometry">
            <mxPoint x="1034" y="2114" as="sourcePoint" />
            <mxPoint x="798" y="2139" as="targetPoint" />
          </mxGeometry>
        </mxCell>
        <mxCell id="luvSKbE3HoO7kfqYkVxN-31" value="&amp;lt;&amp;lt;extend&amp;gt;&amp;gt;" style="edgeLabel;resizable=0;html=1;;align=center;verticalAlign=middle;fontSize=18;fontStyle=1" parent="luvSKbE3HoO7kfqYkVxN-30" connectable="0" vertex="1">
          <mxGeometry relative="1" as="geometry" />
        </mxCell>
        <mxCell id="luvSKbE3HoO7kfqYkVxN-32" value="" style="endArrow=classic;html=1;rounded=0;fontSize=22;startSize=8;endSize=8;curved=1;fontStyle=1;exitX=0;exitY=0.5;exitDx=0;exitDy=0;" parent="WIyWlLk6GJQsqaUBKTNV-1" source="luvSKbE3HoO7kfqYkVxN-16" target="luvSKbE3HoO7kfqYkVxN-4" edge="1">
          <mxGeometry relative="1" as="geometry">
            <mxPoint x="1090" y="2114" as="sourcePoint" />
            <mxPoint x="854" y="2139" as="targetPoint" />
          </mxGeometry>
        </mxCell>
        <mxCell id="luvSKbE3HoO7kfqYkVxN-33" value="&amp;lt;&amp;lt;extend&amp;gt;&amp;gt;" style="edgeLabel;resizable=0;html=1;;align=center;verticalAlign=middle;fontSize=18;fontStyle=1" parent="luvSKbE3HoO7kfqYkVxN-32" connectable="0" vertex="1">
          <mxGeometry relative="1" as="geometry" />
        </mxCell>
        <mxCell id="luvSKbE3HoO7kfqYkVxN-34" value="" style="endArrow=classic;html=1;rounded=0;fontSize=22;startSize=8;endSize=8;curved=1;entryX=0.987;entryY=0.671;entryDx=0;entryDy=0;fontStyle=1;exitX=0;exitY=0.5;exitDx=0;exitDy=0;entryPerimeter=0;" parent="WIyWlLk6GJQsqaUBKTNV-1" source="luvSKbE3HoO7kfqYkVxN-17" target="luvSKbE3HoO7kfqYkVxN-4" edge="1">
          <mxGeometry relative="1" as="geometry">
            <mxPoint x="1020" y="2142" as="sourcePoint" />
            <mxPoint x="784" y="2167" as="targetPoint" />
          </mxGeometry>
        </mxCell>
        <mxCell id="luvSKbE3HoO7kfqYkVxN-35" value="&amp;lt;&amp;lt;extend&amp;gt;&amp;gt;" style="edgeLabel;resizable=0;html=1;;align=center;verticalAlign=middle;fontSize=18;fontStyle=1" parent="luvSKbE3HoO7kfqYkVxN-34" connectable="0" vertex="1">
          <mxGeometry relative="1" as="geometry" />
        </mxCell>
        <mxCell id="luvSKbE3HoO7kfqYkVxN-36" value="Search" style="ellipse;whiteSpace=wrap;html=1;fontSize=18;fontStyle=1" parent="WIyWlLk6GJQsqaUBKTNV-1" vertex="1">
          <mxGeometry x="2356.5" y="2520" width="154" height="42" as="geometry" />
        </mxCell>
        <mxCell id="luvSKbE3HoO7kfqYkVxN-37" value="Currency convertar" style="ellipse;whiteSpace=wrap;html=1;fontSize=18;fontStyle=1" parent="WIyWlLk6GJQsqaUBKTNV-1" vertex="1">
          <mxGeometry x="2335.5" y="2380" width="196" height="56" as="geometry" />
        </mxCell>
        <mxCell id="luvSKbE3HoO7kfqYkVxN-38" value="View Map" style="ellipse;whiteSpace=wrap;html=1;fontSize=18;fontStyle=1" parent="WIyWlLk6GJQsqaUBKTNV-1" vertex="1">
          <mxGeometry x="2375.5" y="2450" width="161.5" height="42" as="geometry" />
        </mxCell>
        <mxCell id="luvSKbE3HoO7kfqYkVxN-41" value="view Magazine" style="ellipse;whiteSpace=wrap;html=1;fontSize=18;fontStyle=1" parent="WIyWlLk6GJQsqaUBKTNV-1" vertex="1">
          <mxGeometry x="2344.5" y="2198" width="189.5" height="42" as="geometry" />
        </mxCell>
        <mxCell id="luvSKbE3HoO7kfqYkVxN-42" value="view details" style="ellipse;whiteSpace=wrap;html=1;fontSize=18;fontStyle=1" parent="WIyWlLk6GJQsqaUBKTNV-1" vertex="1">
          <mxGeometry x="2356" y="2324" width="181" height="42" as="geometry" />
        </mxCell>
        <mxCell id="luvSKbE3HoO7kfqYkVxN-43" value="Catagory" style="ellipse;whiteSpace=wrap;html=1;fontSize=18;fontStyle=1" parent="WIyWlLk6GJQsqaUBKTNV-1" vertex="1">
          <mxGeometry x="2423" y="2254" width="140" height="42" as="geometry" />
        </mxCell>
        <mxCell id="luvSKbE3HoO7kfqYkVxN-45" value="" style="endArrow=classic;html=1;rounded=0;fontSize=22;startSize=8;endSize=8;curved=1;fontStyle=1;exitX=0;exitY=0.5;exitDx=0;exitDy=0;" parent="WIyWlLk6GJQsqaUBKTNV-1" source="luvSKbE3HoO7kfqYkVxN-41" target="luvSKbE3HoO7kfqYkVxN-2" edge="1">
          <mxGeometry relative="1" as="geometry">
            <mxPoint x="1320" y="2282" as="sourcePoint" />
            <mxPoint x="910" y="2316" as="targetPoint" />
          </mxGeometry>
        </mxCell>
        <mxCell id="luvSKbE3HoO7kfqYkVxN-46" value="&amp;lt;&amp;lt;extend&amp;gt;&amp;gt;" style="edgeLabel;resizable=0;html=1;;align=center;verticalAlign=middle;fontSize=18;fontStyle=1" parent="luvSKbE3HoO7kfqYkVxN-45" connectable="0" vertex="1">
          <mxGeometry relative="1" as="geometry" />
        </mxCell>
        <mxCell id="luvSKbE3HoO7kfqYkVxN-47" value="" style="endArrow=classic;html=1;rounded=0;fontSize=22;startSize=8;endSize=8;curved=1;fontStyle=1;exitX=0;exitY=0.5;exitDx=0;exitDy=0;" parent="WIyWlLk6GJQsqaUBKTNV-1" source="luvSKbE3HoO7kfqYkVxN-43" target="luvSKbE3HoO7kfqYkVxN-2" edge="1">
          <mxGeometry relative="1" as="geometry">
            <mxPoint x="1768" y="2436" as="sourcePoint" />
            <mxPoint x="1358" y="2470" as="targetPoint" />
          </mxGeometry>
        </mxCell>
        <mxCell id="luvSKbE3HoO7kfqYkVxN-48" value="&amp;lt;&amp;lt;extend&amp;gt;&amp;gt;" style="edgeLabel;resizable=0;html=1;;align=center;verticalAlign=middle;fontSize=18;fontStyle=1" parent="luvSKbE3HoO7kfqYkVxN-47" connectable="0" vertex="1">
          <mxGeometry relative="1" as="geometry" />
        </mxCell>
        <mxCell id="luvSKbE3HoO7kfqYkVxN-49" value="" style="endArrow=classic;html=1;rounded=0;fontSize=22;startSize=8;endSize=8;curved=1;fontStyle=1;exitX=0;exitY=0.5;exitDx=0;exitDy=0;entryX=0.963;entryY=0.714;entryDx=0;entryDy=0;entryPerimeter=0;" parent="WIyWlLk6GJQsqaUBKTNV-1" source="luvSKbE3HoO7kfqYkVxN-42" target="luvSKbE3HoO7kfqYkVxN-2" edge="1">
          <mxGeometry relative="1" as="geometry">
            <mxPoint x="1908" y="2520" as="sourcePoint" />
            <mxPoint x="1386" y="2282" as="targetPoint" />
          </mxGeometry>
        </mxCell>
        <mxCell id="luvSKbE3HoO7kfqYkVxN-50" value="&amp;lt;&amp;lt;extend&amp;gt;&amp;gt;" style="edgeLabel;resizable=0;html=1;;align=center;verticalAlign=middle;fontSize=18;fontStyle=1" parent="luvSKbE3HoO7kfqYkVxN-49" connectable="0" vertex="1">
          <mxGeometry relative="1" as="geometry" />
        </mxCell>
        <mxCell id="luvSKbE3HoO7kfqYkVxN-52" value="" style="endArrow=classic;html=1;rounded=0;fontSize=22;startSize=8;endSize=8;curved=1;fontStyle=1;exitX=0;exitY=0.5;exitDx=0;exitDy=0;entryX=1;entryY=0.5;entryDx=0;entryDy=0;" parent="WIyWlLk6GJQsqaUBKTNV-1" source="luvSKbE3HoO7kfqYkVxN-37" target="luvSKbE3HoO7kfqYkVxN-8" edge="1">
          <mxGeometry relative="1" as="geometry">
            <mxPoint x="1530" y="2576" as="sourcePoint" />
            <mxPoint x="1120" y="2610" as="targetPoint" />
          </mxGeometry>
        </mxCell>
        <mxCell id="luvSKbE3HoO7kfqYkVxN-53" value="&amp;lt;&amp;lt;extend&amp;gt;&amp;gt;" style="edgeLabel;resizable=0;html=1;;align=center;verticalAlign=middle;fontSize=18;fontStyle=1" parent="luvSKbE3HoO7kfqYkVxN-52" connectable="0" vertex="1">
          <mxGeometry relative="1" as="geometry" />
        </mxCell>
        <mxCell id="luvSKbE3HoO7kfqYkVxN-54" value="" style="endArrow=classic;html=1;rounded=0;fontSize=22;startSize=8;endSize=8;curved=1;fontStyle=1;exitX=0;exitY=0.5;exitDx=0;exitDy=0;" parent="WIyWlLk6GJQsqaUBKTNV-1" source="luvSKbE3HoO7kfqYkVxN-38" target="luvSKbE3HoO7kfqYkVxN-8" edge="1">
          <mxGeometry relative="1" as="geometry">
            <mxPoint x="1586" y="2660" as="sourcePoint" />
            <mxPoint x="1176" y="2694" as="targetPoint" />
          </mxGeometry>
        </mxCell>
        <mxCell id="luvSKbE3HoO7kfqYkVxN-55" value="&amp;lt;&amp;lt;extend&amp;gt;&amp;gt;" style="edgeLabel;resizable=0;html=1;;align=center;verticalAlign=middle;fontSize=18;fontStyle=1" parent="luvSKbE3HoO7kfqYkVxN-54" connectable="0" vertex="1">
          <mxGeometry relative="1" as="geometry" />
        </mxCell>
        <mxCell id="luvSKbE3HoO7kfqYkVxN-56" value="" style="endArrow=classic;html=1;rounded=0;fontSize=22;startSize=8;endSize=8;curved=1;fontStyle=1;exitX=0;exitY=0.5;exitDx=0;exitDy=0;entryX=0.982;entryY=0.736;entryDx=0;entryDy=0;entryPerimeter=0;" parent="WIyWlLk6GJQsqaUBKTNV-1" source="luvSKbE3HoO7kfqYkVxN-36" target="luvSKbE3HoO7kfqYkVxN-8" edge="1">
          <mxGeometry relative="1" as="geometry">
            <mxPoint x="1544" y="2604" as="sourcePoint" />
            <mxPoint x="1134" y="2638" as="targetPoint" />
          </mxGeometry>
        </mxCell>
        <mxCell id="luvSKbE3HoO7kfqYkVxN-57" value="&amp;lt;&amp;lt;extend&amp;gt;&amp;gt;" style="edgeLabel;resizable=0;html=1;;align=center;verticalAlign=middle;fontSize=18;fontStyle=1" parent="luvSKbE3HoO7kfqYkVxN-56" connectable="0" vertex="1">
          <mxGeometry relative="1" as="geometry" />
        </mxCell>
        <mxCell id="luvSKbE3HoO7kfqYkVxN-58" value="" style="endArrow=none;html=1;edgeStyle=orthogonalEdgeStyle;rounded=0;fontSize=22;startSize=8;endSize=8;curved=1;fontStyle=1;entryX=0;entryY=0.5;entryDx=0;entryDy=0;exitX=1;exitY=1;exitDx=0;exitDy=0;exitPerimeter=0;" parent="WIyWlLk6GJQsqaUBKTNV-1" source="XJ4yfPHk3WQDnESd4M72-2" target="luvSKbE3HoO7kfqYkVxN-1" edge="1">
          <mxGeometry relative="1" as="geometry">
            <mxPoint x="278" y="633" as="sourcePoint" />
            <mxPoint x="518" y="1365" as="targetPoint" />
            <Array as="points">
              <mxPoint x="140" y="633" />
              <mxPoint x="182" y="633" />
              <mxPoint x="182" y="889" />
              <mxPoint x="322" y="889" />
              <mxPoint x="322" y="1204" />
              <mxPoint x="490" y="1204" />
              <mxPoint x="490" y="1323" />
              <mxPoint x="519" y="1323" />
              <mxPoint x="519" y="1554" />
            </Array>
          </mxGeometry>
        </mxCell>
        <mxCell id="luvSKbE3HoO7kfqYkVxN-59" value="" style="endArrow=none;html=1;edgeStyle=orthogonalEdgeStyle;rounded=0;fontSize=22;startSize=8;endSize=8;curved=1;fontStyle=1;exitX=0;exitY=1;exitDx=0;exitDy=0;exitPerimeter=0;" parent="WIyWlLk6GJQsqaUBKTNV-1" source="XJ4yfPHk3WQDnESd4M72-2" target="luvSKbE3HoO7kfqYkVxN-4" edge="1">
          <mxGeometry relative="1" as="geometry">
            <mxPoint x="24" y="1498" as="sourcePoint" />
            <mxPoint x="360" y="2044" as="targetPoint" />
            <Array as="points">
              <mxPoint x="24" y="500" />
              <mxPoint x="24" y="1568" />
              <mxPoint x="164" y="1568" />
              <mxPoint x="164" y="1722" />
              <mxPoint x="332" y="1722" />
              <mxPoint x="332" y="2002" />
              <mxPoint x="476" y="2002" />
              <mxPoint x="476" y="2044" />
              <mxPoint x="581" y="2044" />
            </Array>
          </mxGeometry>
        </mxCell>
        <mxCell id="luvSKbE3HoO7kfqYkVxN-60" value="" style="endArrow=none;html=1;edgeStyle=orthogonalEdgeStyle;rounded=0;fontSize=22;startSize=8;endSize=8;curved=1;fontStyle=1;entryX=0;entryY=0.5;entryDx=0;entryDy=0;exitX=0;exitY=1;exitDx=0;exitDy=0;exitPerimeter=0;" parent="WIyWlLk6GJQsqaUBKTNV-1" source="XJ4yfPHk3WQDnESd4M72-2" target="luvSKbE3HoO7kfqYkVxN-3" edge="1">
          <mxGeometry relative="1" as="geometry">
            <mxPoint x="70" y="1302" as="sourcePoint" />
            <mxPoint x="406" y="1848" as="targetPoint" />
            <Array as="points">
              <mxPoint x="70" y="500" />
              <mxPoint x="70" y="1372" />
              <mxPoint x="210" y="1372" />
              <mxPoint x="210" y="1526" />
              <mxPoint x="378" y="1526" />
              <mxPoint x="378" y="1806" />
              <mxPoint x="406" y="1806" />
              <mxPoint x="406" y="1890" />
            </Array>
          </mxGeometry>
        </mxCell>
        <mxCell id="luvSKbE3HoO7kfqYkVxN-61" value="" style="endArrow=none;html=1;edgeStyle=orthogonalEdgeStyle;rounded=0;fontSize=22;startSize=8;endSize=8;curved=1;fontStyle=1;entryX=0;entryY=0.5;entryDx=0;entryDy=0;" parent="WIyWlLk6GJQsqaUBKTNV-1" target="luvSKbE3HoO7kfqYkVxN-2" edge="1">
          <mxGeometry relative="1" as="geometry">
            <mxPoint x="140" y="406" as="sourcePoint" />
            <mxPoint x="364" y="2022" as="targetPoint" />
            <Array as="points">
              <mxPoint x="140" y="424" />
              <mxPoint x="274" y="424" />
              <mxPoint x="274" y="2226" />
              <mxPoint x="1196" y="2226" />
            </Array>
          </mxGeometry>
        </mxCell>
        <mxCell id="luvSKbE3HoO7kfqYkVxN-62" value="" style="endArrow=none;html=1;edgeStyle=orthogonalEdgeStyle;rounded=0;fontSize=22;startSize=8;endSize=8;curved=1;fontStyle=1;entryX=0;entryY=0.5;entryDx=0;entryDy=0;" parent="WIyWlLk6GJQsqaUBKTNV-1" edge="1">
          <mxGeometry relative="1" as="geometry">
            <mxPoint x="140" y="490" as="sourcePoint" />
            <mxPoint x="1299" y="1699" as="targetPoint" />
            <Array as="points">
              <mxPoint x="140" y="509" />
              <mxPoint x="140" y="519" />
              <mxPoint x="154" y="519" />
              <mxPoint x="154" y="1069" />
              <mxPoint x="294" y="1069" />
              <mxPoint x="294" y="1223" />
              <mxPoint x="462" y="1223" />
              <mxPoint x="462" y="1503" />
              <mxPoint x="490" y="1503" />
              <mxPoint x="490" y="1671" />
              <mxPoint x="1299" y="1671" />
            </Array>
          </mxGeometry>
        </mxCell>
        <mxCell id="luvSKbE3HoO7kfqYkVxN-65" value="View map" style="ellipse;whiteSpace=wrap;html=1;fontSize=18;fontStyle=1" parent="WIyWlLk6GJQsqaUBKTNV-1" vertex="1">
          <mxGeometry x="2396.5" y="1820" width="126" height="42" as="geometry" />
        </mxCell>
        <mxCell id="luvSKbE3HoO7kfqYkVxN-66" value="" style="endArrow=classic;html=1;rounded=0;fontSize=22;startSize=8;endSize=8;curved=1;fontStyle=1;exitX=0;exitY=0.5;exitDx=0;exitDy=0;entryX=1;entryY=0.5;entryDx=0;entryDy=0;" parent="WIyWlLk6GJQsqaUBKTNV-1" source="luvSKbE3HoO7kfqYkVxN-65" target="luvSKbE3HoO7kfqYkVxN-3" edge="1">
          <mxGeometry relative="1" as="geometry">
            <mxPoint x="2521" y="1904" as="sourcePoint" />
            <mxPoint x="1834" y="1981" as="targetPoint" />
          </mxGeometry>
        </mxCell>
        <mxCell id="luvSKbE3HoO7kfqYkVxN-67" value="&amp;lt;&amp;lt;extend&amp;gt;&amp;gt;" style="edgeLabel;resizable=0;html=1;;align=center;verticalAlign=middle;fontSize=18;fontStyle=1" parent="luvSKbE3HoO7kfqYkVxN-66" connectable="0" vertex="1">
          <mxGeometry relative="1" as="geometry" />
        </mxCell>
        <mxCell id="luvSKbE3HoO7kfqYkVxN-68" value="" style="endArrow=classic;html=1;rounded=0;fontSize=22;startSize=8;endSize=8;curved=1;fontStyle=1;entryX=1;entryY=0.5;entryDx=0;entryDy=0;exitX=0.099;exitY=0.743;exitDx=0;exitDy=0;exitPerimeter=0;" parent="WIyWlLk6GJQsqaUBKTNV-1" target="luvSKbE3HoO7kfqYkVxN-4" edge="1" source="luvSKbE3HoO7kfqYkVxN-70">
          <mxGeometry relative="1" as="geometry">
            <mxPoint x="1134" y="2114" as="sourcePoint" />
            <mxPoint x="1232" y="2191" as="targetPoint" />
          </mxGeometry>
        </mxCell>
        <mxCell id="luvSKbE3HoO7kfqYkVxN-69" value="&amp;lt;&amp;lt;extend&amp;gt;&amp;gt;" style="edgeLabel;resizable=0;html=1;;align=center;verticalAlign=middle;fontSize=18;fontStyle=1" parent="luvSKbE3HoO7kfqYkVxN-68" connectable="0" vertex="1">
          <mxGeometry relative="1" as="geometry" />
        </mxCell>
        <mxCell id="luvSKbE3HoO7kfqYkVxN-70" value="View map" style="ellipse;whiteSpace=wrap;html=1;fontSize=18;fontStyle=1" parent="WIyWlLk6GJQsqaUBKTNV-1" vertex="1">
          <mxGeometry x="2370.5" y="1974" width="152" height="42" as="geometry" />
        </mxCell>
        <mxCell id="lsZKWU-VenDH159vAkWX-0" value="" style="endArrow=classic;html=1;rounded=0;fontSize=22;startSize=8;endSize=8;curved=1;exitX=1;exitY=1;exitDx=0;exitDy=0;entryX=0;entryY=0.5;entryDx=0;entryDy=0;fontStyle=1;" edge="1" parent="WIyWlLk6GJQsqaUBKTNV-1" source="VIz6haqx31DAB9J9U4sU-35" target="VIz6haqx31DAB9J9U4sU-43">
          <mxGeometry relative="1" as="geometry">
            <mxPoint x="833" y="1084" as="sourcePoint" />
            <mxPoint x="1511" y="1160" as="targetPoint" />
            <Array as="points" />
          </mxGeometry>
        </mxCell>
        <mxCell id="lsZKWU-VenDH159vAkWX-1" value="&amp;lt;&amp;lt;include&amp;gt;&amp;gt;" style="edgeLabel;resizable=0;html=1;;align=center;verticalAlign=middle;fontSize=18;fontStyle=1" connectable="0" vertex="1" parent="lsZKWU-VenDH159vAkWX-0">
          <mxGeometry relative="1" as="geometry">
            <mxPoint x="-3" y="1" as="offset" />
          </mxGeometry>
        </mxCell>
        <mxCell id="VIz6haqx31DAB9J9U4sU-43" value="View Cultural Foods" style="ellipse;whiteSpace=wrap;html=1;fontSize=18;fontStyle=1" parent="WIyWlLk6GJQsqaUBKTNV-1" vertex="1">
          <mxGeometry x="2326" y="1232" width="204" height="42" as="geometry" />
        </mxCell>
        <mxCell id="lsZKWU-VenDH159vAkWX-4" value="" style="endArrow=classic;html=1;rounded=0;fontSize=22;startSize=8;endSize=8;curved=1;fontStyle=1;exitX=0.981;exitY=0.343;exitDx=0;exitDy=0;exitPerimeter=0;entryX=0;entryY=0.5;entryDx=0;entryDy=0;" edge="1" parent="WIyWlLk6GJQsqaUBKTNV-1" source="VIz6haqx31DAB9J9U4sU-35" target="VIz6haqx31DAB9J9U4sU-39">
          <mxGeometry relative="1" as="geometry">
            <mxPoint x="1187" y="1070" as="sourcePoint" />
            <mxPoint x="2618" y="1072" as="targetPoint" />
          </mxGeometry>
        </mxCell>
        <mxCell id="lsZKWU-VenDH159vAkWX-5" value="&amp;lt;&amp;lt;include&amp;gt;&amp;gt;" style="edgeLabel;resizable=0;html=1;;align=center;verticalAlign=middle;fontSize=18;fontStyle=1" connectable="0" vertex="1" parent="lsZKWU-VenDH159vAkWX-4">
          <mxGeometry relative="1" as="geometry" />
        </mxCell>
        <mxCell id="lsZKWU-VenDH159vAkWX-6" value="" style="endArrow=classic;html=1;rounded=0;fontSize=22;startSize=8;endSize=8;curved=1;entryX=0.032;entryY=0.351;entryDx=0;entryDy=0;fontStyle=1;exitX=0.981;exitY=0.686;exitDx=0;exitDy=0;entryPerimeter=0;exitPerimeter=0;" edge="1" parent="WIyWlLk6GJQsqaUBKTNV-1" source="VIz6haqx31DAB9J9U4sU-35" target="VIz6haqx31DAB9J9U4sU-46">
          <mxGeometry relative="1" as="geometry">
            <mxPoint x="1432" y="1118" as="sourcePoint" />
            <mxPoint x="2394" y="1157" as="targetPoint" />
          </mxGeometry>
        </mxCell>
        <mxCell id="lsZKWU-VenDH159vAkWX-7" value="&amp;lt;&amp;lt;include&amp;gt;&amp;gt;" style="edgeLabel;resizable=0;html=1;;align=center;verticalAlign=middle;fontSize=18;fontStyle=1" connectable="0" vertex="1" parent="lsZKWU-VenDH159vAkWX-6">
          <mxGeometry relative="1" as="geometry" />
        </mxCell>
        <mxCell id="lsZKWU-VenDH159vAkWX-8" value="" style="endArrow=classic;html=1;rounded=0;entryX=0.786;entryY=0.057;entryDx=0;entryDy=0;exitX=0.117;exitY=0.771;exitDx=0;exitDy=0;exitPerimeter=0;entryPerimeter=0;" edge="1" parent="WIyWlLk6GJQsqaUBKTNV-1" source="VIz6haqx31DAB9J9U4sU-35" target="VIz6haqx31DAB9J9U4sU-50">
          <mxGeometry relative="1" as="geometry">
            <mxPoint x="1330" y="1134" as="sourcePoint" />
            <mxPoint x="1430" y="1134" as="targetPoint" />
          </mxGeometry>
        </mxCell>
        <mxCell id="lsZKWU-VenDH159vAkWX-9" value="Label" style="edgeLabel;resizable=0;html=1;;align=center;verticalAlign=middle;" connectable="0" vertex="1" parent="lsZKWU-VenDH159vAkWX-8">
          <mxGeometry relative="1" as="geometry" />
        </mxCell>
        <mxCell id="lsZKWU-VenDH159vAkWX-10" value="&lt;b&gt;&lt;font style=&quot;font-size: 16px;&quot;&gt;&amp;lt;&amp;lt;include&amp;gt;&amp;gt;&lt;/font&gt;&lt;/b&gt;" style="edgeLabel;html=1;align=center;verticalAlign=middle;resizable=0;points=[];" vertex="1" connectable="0" parent="lsZKWU-VenDH159vAkWX-8">
          <mxGeometry x="-0.0855" y="1" relative="1" as="geometry">
            <mxPoint x="-1" as="offset" />
          </mxGeometry>
        </mxCell>
        <mxCell id="lsZKWU-VenDH159vAkWX-11" value="" style="endArrow=classic;html=1;rounded=0;entryX=0.545;entryY=-0.021;entryDx=0;entryDy=0;exitX=0.473;exitY=1;exitDx=0;exitDy=0;exitPerimeter=0;entryPerimeter=0;" edge="1" parent="WIyWlLk6GJQsqaUBKTNV-1" source="VIz6haqx31DAB9J9U4sU-35" target="VIz6haqx31DAB9J9U4sU-67">
          <mxGeometry relative="1" as="geometry">
            <mxPoint x="1209" y="1133" as="sourcePoint" />
            <mxPoint x="969" y="1206" as="targetPoint" />
          </mxGeometry>
        </mxCell>
        <mxCell id="lsZKWU-VenDH159vAkWX-12" value="Label" style="edgeLabel;resizable=0;html=1;;align=center;verticalAlign=middle;" connectable="0" vertex="1" parent="lsZKWU-VenDH159vAkWX-11">
          <mxGeometry relative="1" as="geometry" />
        </mxCell>
        <mxCell id="lsZKWU-VenDH159vAkWX-13" value="&lt;b&gt;&lt;font style=&quot;font-size: 16px;&quot;&gt;&amp;lt;&amp;lt;include&amp;gt;&amp;gt;&lt;/font&gt;&lt;/b&gt;" style="edgeLabel;html=1;align=center;verticalAlign=middle;resizable=0;points=[];" vertex="1" connectable="0" parent="lsZKWU-VenDH159vAkWX-11">
          <mxGeometry x="-0.0855" y="1" relative="1" as="geometry">
            <mxPoint x="-1" as="offset" />
          </mxGeometry>
        </mxCell>
        <mxCell id="lsZKWU-VenDH159vAkWX-14" value="" style="endArrow=none;html=1;edgeStyle=orthogonalEdgeStyle;rounded=0;fontSize=22;startSize=8;endSize=8;curved=1;fontStyle=1;entryX=0;entryY=0.5;entryDx=0;entryDy=0;" edge="1" parent="WIyWlLk6GJQsqaUBKTNV-1" target="luvSKbE3HoO7kfqYkVxN-8">
          <mxGeometry relative="1" as="geometry">
            <mxPoint y="504" as="sourcePoint" />
            <mxPoint x="1143.5" y="2464" as="targetPoint" />
            <Array as="points">
              <mxPoint x="-14" y="490" />
              <mxPoint x="-14" y="504" />
              <mxPoint x="-6" y="504" />
              <mxPoint x="-6" y="2032" />
              <mxPoint x="134" y="2032" />
              <mxPoint x="134" y="2186" />
              <mxPoint x="302" y="2186" />
              <mxPoint x="302" y="2466" />
              <mxPoint x="330" y="2466" />
              <mxPoint x="330" y="2496" />
              <mxPoint x="1143" y="2496" />
              <mxPoint x="1143" y="2394" />
              <mxPoint x="1166" y="2394" />
            </Array>
          </mxGeometry>
        </mxCell>
        <mxCell id="lsZKWU-VenDH159vAkWX-15" value="See The Rivers Of BD" style="ellipse;whiteSpace=wrap;html=1;fontSize=18;fontStyle=1" vertex="1" parent="WIyWlLk6GJQsqaUBKTNV-1">
          <mxGeometry x="1201" y="2478" width="227" height="56" as="geometry" />
        </mxCell>
        <mxCell id="lsZKWU-VenDH159vAkWX-16" value="view the rivers of BD" style="ellipse;whiteSpace=wrap;html=1;fontSize=18;fontStyle=1" vertex="1" parent="WIyWlLk6GJQsqaUBKTNV-1">
          <mxGeometry x="1078" y="2632" width="202.5" height="56" as="geometry" />
        </mxCell>
        <mxCell id="lsZKWU-VenDH159vAkWX-17" value="search by name" style="ellipse;whiteSpace=wrap;html=1;fontSize=18;fontStyle=1" vertex="1" parent="WIyWlLk6GJQsqaUBKTNV-1">
          <mxGeometry x="1347" y="2632" width="202.5" height="56" as="geometry" />
        </mxCell>
        <mxCell id="lsZKWU-VenDH159vAkWX-18" value="" style="endArrow=classic;html=1;rounded=0;exitX=0.5;exitY=0;exitDx=0;exitDy=0;entryX=0.233;entryY=0.864;entryDx=0;entryDy=0;entryPerimeter=0;" edge="1" parent="WIyWlLk6GJQsqaUBKTNV-1" source="lsZKWU-VenDH159vAkWX-16" target="lsZKWU-VenDH159vAkWX-15">
          <mxGeometry relative="1" as="geometry">
            <mxPoint x="1458" y="2478" as="sourcePoint" />
            <mxPoint x="1358" y="2478" as="targetPoint" />
          </mxGeometry>
        </mxCell>
        <mxCell id="lsZKWU-VenDH159vAkWX-19" value="Label" style="edgeLabel;resizable=0;html=1;;align=center;verticalAlign=middle;" connectable="0" vertex="1" parent="lsZKWU-VenDH159vAkWX-18">
          <mxGeometry relative="1" as="geometry" />
        </mxCell>
        <mxCell id="lsZKWU-VenDH159vAkWX-20" value="&lt;b&gt;&lt;font style=&quot;font-size: 19px;&quot;&gt;&amp;lt;&amp;lt;extend&amp;gt;&lt;/font&gt;&amp;gt;&lt;/b&gt;" style="edgeLabel;html=1;align=center;verticalAlign=middle;resizable=0;points=[];" vertex="1" connectable="0" parent="lsZKWU-VenDH159vAkWX-18">
          <mxGeometry x="-0.0852" y="1" relative="1" as="geometry">
            <mxPoint as="offset" />
          </mxGeometry>
        </mxCell>
        <mxCell id="lsZKWU-VenDH159vAkWX-21" value="" style="endArrow=classic;html=1;rounded=0;exitX=0.274;exitY=0.129;exitDx=0;exitDy=0;entryX=0.734;entryY=0.936;entryDx=0;entryDy=0;entryPerimeter=0;exitPerimeter=0;" edge="1" parent="WIyWlLk6GJQsqaUBKTNV-1" source="lsZKWU-VenDH159vAkWX-17" target="lsZKWU-VenDH159vAkWX-15">
          <mxGeometry relative="1" as="geometry">
            <mxPoint x="1235" y="2646" as="sourcePoint" />
            <mxPoint x="1269" y="2540" as="targetPoint" />
          </mxGeometry>
        </mxCell>
        <mxCell id="lsZKWU-VenDH159vAkWX-22" value="Label" style="edgeLabel;resizable=0;html=1;;align=center;verticalAlign=middle;" connectable="0" vertex="1" parent="lsZKWU-VenDH159vAkWX-21">
          <mxGeometry relative="1" as="geometry" />
        </mxCell>
        <mxCell id="lsZKWU-VenDH159vAkWX-23" value="&lt;b&gt;&lt;font style=&quot;font-size: 19px;&quot;&gt;&amp;lt;&amp;lt;extend&amp;gt;&amp;gt;&lt;/font&gt;&lt;/b&gt;" style="edgeLabel;html=1;align=center;verticalAlign=middle;resizable=0;points=[];" vertex="1" connectable="0" parent="lsZKWU-VenDH159vAkWX-21">
          <mxGeometry x="-0.0852" y="1" relative="1" as="geometry">
            <mxPoint as="offset" />
          </mxGeometry>
        </mxCell>
        <mxCell id="lsZKWU-VenDH159vAkWX-24" value="Explore All Festivals" style="ellipse;whiteSpace=wrap;html=1;fontSize=20;fontStyle=1" vertex="1" parent="WIyWlLk6GJQsqaUBKTNV-1">
          <mxGeometry x="1191" y="2758" width="246" height="56" as="geometry" />
        </mxCell>
        <mxCell id="lsZKWU-VenDH159vAkWX-25" value="explore by religions" style="ellipse;whiteSpace=wrap;html=1;fontSize=20;fontStyle=1" vertex="1" parent="WIyWlLk6GJQsqaUBKTNV-1">
          <mxGeometry x="1654" y="2730" width="236" height="42" as="geometry" />
        </mxCell>
        <mxCell id="lsZKWU-VenDH159vAkWX-26" value="explore by place" style="ellipse;whiteSpace=wrap;html=1;fontSize=20;fontStyle=1" vertex="1" parent="WIyWlLk6GJQsqaUBKTNV-1">
          <mxGeometry x="1694" y="2800" width="222" height="42" as="geometry" />
        </mxCell>
        <mxCell id="lsZKWU-VenDH159vAkWX-27" value="" style="endArrow=classic;html=1;rounded=0;exitX=0;exitY=0.5;exitDx=0;exitDy=0;entryX=1;entryY=0.5;entryDx=0;entryDy=0;" edge="1" parent="WIyWlLk6GJQsqaUBKTNV-1" source="lsZKWU-VenDH159vAkWX-25" target="lsZKWU-VenDH159vAkWX-24">
          <mxGeometry relative="1" as="geometry">
            <mxPoint x="1269" y="2540" as="sourcePoint" />
            <mxPoint x="1193" y="2646" as="targetPoint" />
          </mxGeometry>
        </mxCell>
        <mxCell id="lsZKWU-VenDH159vAkWX-28" value="Label" style="edgeLabel;resizable=0;html=1;;align=center;verticalAlign=middle;" connectable="0" vertex="1" parent="lsZKWU-VenDH159vAkWX-27">
          <mxGeometry relative="1" as="geometry" />
        </mxCell>
        <mxCell id="lsZKWU-VenDH159vAkWX-29" value="&lt;b&gt;&lt;font style=&quot;font-size: 19px;&quot;&gt;&amp;lt;&amp;lt;extend&amp;gt;&lt;/font&gt;&amp;gt;&lt;/b&gt;" style="edgeLabel;html=1;align=center;verticalAlign=middle;resizable=0;points=[];" vertex="1" connectable="0" parent="lsZKWU-VenDH159vAkWX-27">
          <mxGeometry x="-0.0852" y="1" relative="1" as="geometry">
            <mxPoint as="offset" />
          </mxGeometry>
        </mxCell>
        <mxCell id="lsZKWU-VenDH159vAkWX-30" value="" style="endArrow=classic;html=1;rounded=0;exitX=0;exitY=0.5;exitDx=0;exitDy=0;entryX=0.937;entryY=0.667;entryDx=0;entryDy=0;entryPerimeter=0;" edge="1" parent="WIyWlLk6GJQsqaUBKTNV-1" source="lsZKWU-VenDH159vAkWX-26" target="lsZKWU-VenDH159vAkWX-24">
          <mxGeometry relative="1" as="geometry">
            <mxPoint x="1542" y="2765" as="sourcePoint" />
            <mxPoint x="1394" y="2793" as="targetPoint" />
          </mxGeometry>
        </mxCell>
        <mxCell id="lsZKWU-VenDH159vAkWX-31" value="Label" style="edgeLabel;resizable=0;html=1;;align=center;verticalAlign=middle;" connectable="0" vertex="1" parent="lsZKWU-VenDH159vAkWX-30">
          <mxGeometry relative="1" as="geometry" />
        </mxCell>
        <mxCell id="lsZKWU-VenDH159vAkWX-32" value="&lt;b&gt;&lt;font style=&quot;font-size: 19px;&quot;&gt;&amp;lt;&amp;lt;extend&amp;gt;&lt;/font&gt;&amp;gt;&lt;/b&gt;" style="edgeLabel;html=1;align=center;verticalAlign=middle;resizable=0;points=[];" vertex="1" connectable="0" parent="lsZKWU-VenDH159vAkWX-30">
          <mxGeometry x="-0.0852" y="1" relative="1" as="geometry">
            <mxPoint as="offset" />
          </mxGeometry>
        </mxCell>
        <mxCell id="lsZKWU-VenDH159vAkWX-34" value="" style="endArrow=none;html=1;edgeStyle=orthogonalEdgeStyle;rounded=0;fontSize=22;startSize=8;endSize=8;curved=1;fontStyle=1;exitX=0.25;exitY=0.1;exitDx=0;exitDy=0;exitPerimeter=0;" edge="1" parent="WIyWlLk6GJQsqaUBKTNV-1" target="lsZKWU-VenDH159vAkWX-15">
          <mxGeometry relative="1" as="geometry">
            <mxPoint y="500" as="sourcePoint" />
            <mxPoint x="1324" y="2488" as="targetPoint" />
            <Array as="points">
              <mxPoint y="514" />
              <mxPoint x="8" y="514" />
              <mxPoint x="8" y="2098" />
              <mxPoint x="148" y="2098" />
              <mxPoint x="148" y="2252" />
              <mxPoint x="316" y="2252" />
              <mxPoint x="316" y="2532" />
              <mxPoint x="344" y="2532" />
              <mxPoint x="344" y="2562" />
              <mxPoint x="1157" y="2562" />
              <mxPoint x="1157" y="2516" />
            </Array>
          </mxGeometry>
        </mxCell>
        <mxCell id="lsZKWU-VenDH159vAkWX-35" value="" style="endArrow=none;html=1;edgeStyle=orthogonalEdgeStyle;rounded=0;fontSize=22;startSize=8;endSize=8;curved=1;fontStyle=1;entryX=0.036;entryY=0.65;entryDx=0;entryDy=0;entryPerimeter=0;" edge="1" parent="WIyWlLk6GJQsqaUBKTNV-1" target="lsZKWU-VenDH159vAkWX-24">
          <mxGeometry relative="1" as="geometry">
            <mxPoint y="504" as="sourcePoint" />
            <mxPoint x="1215" y="2520" as="targetPoint" />
            <Array as="points">
              <mxPoint x="-42" y="532" />
              <mxPoint x="-42" y="2130" />
              <mxPoint x="39" y="2130" />
              <mxPoint x="39" y="2284" />
              <mxPoint x="207" y="2284" />
              <mxPoint x="207" y="2564" />
              <mxPoint x="235" y="2564" />
              <mxPoint x="235" y="2594" />
              <mxPoint x="882" y="2594" />
              <mxPoint x="882" y="2884" />
              <mxPoint x="1092" y="2884" />
              <mxPoint x="1092" y="2794" />
            </Array>
          </mxGeometry>
        </mxCell>
        <mxCell id="lsZKWU-VenDH159vAkWX-37" value="" style="endArrow=none;html=1;edgeStyle=orthogonalEdgeStyle;rounded=0;fontSize=22;startSize=8;endSize=8;curved=1;fontStyle=1;entryX=0;entryY=0.5;entryDx=0;entryDy=0;" edge="1" parent="WIyWlLk6GJQsqaUBKTNV-1" target="XJ4yfPHk3WQDnESd4M72-81">
          <mxGeometry relative="1" as="geometry">
            <mxPoint y="504" as="sourcePoint" />
            <mxPoint x="1214" y="2808" as="targetPoint" />
            <Array as="points">
              <mxPoint x="14" y="504" />
              <mxPoint x="14" y="518" />
              <mxPoint x="28" y="518" />
              <mxPoint x="28" y="2144" />
              <mxPoint x="53" y="2144" />
              <mxPoint x="53" y="2298" />
              <mxPoint x="221" y="2298" />
              <mxPoint x="221" y="2578" />
              <mxPoint x="249" y="2578" />
              <mxPoint x="249" y="2608" />
              <mxPoint x="854" y="2608" />
              <mxPoint x="854" y="2898" />
              <mxPoint x="1106" y="2898" />
              <mxPoint x="1106" y="2912" />
              <mxPoint x="1259" y="2912" />
            </Array>
          </mxGeometry>
        </mxCell>
      </root>
    </mxGraphModel>
  </diagram>
</mxfile>
